<!DOCTYPE svg PUBLIC "-//W3C//DTD SVG 20010904//EN" "http://www.w3.org/TR/2001/REC-SVG-20010904/DTD/svg10.dtd">
<svg version="1.0" xmlns="http://www.w3.org/2000/svg" width="1600px" height="1600px" viewBox="0 0 16000 16000" preserveAspectRatio="xMidYMid meet">
<g id="layer101" fill="#000000" stroke="none">
 <path d="M135 15971 c-58 -34 -74 -50 -109 -113 l-26 -47 2 -3193 3 -3193 29 -80 c52 -145 140 -277 234 -352 26 -20 52 -42 57 -47 14 -15 40 -31 110 -65 176 -89 196 -91 1008 -91 l687 0 0 -1725 0 -1725 -525 0 -525 0 0 284 c0 268 -1 288 -22 341 -13 35 -38 73 -63 98 -131 126 -348 94 -437 -66 -22 -41 -23 -49 -26 -347 -2 -220 -7 -307 -15 -312 -7 -4 -29 -8 -49 -8 -50 0 -173 -46 -206 -77 -7 -7 -17 -13 -22 -13 -5 0 -40 -31 -77 -68 -69 -69 -116 -148 -147 -246 -22 -67 -22 -255 0 -322 31 -97 88 -192 153 -253 32 -31 162 -121 174 -121 3 0 51 -27 107 -60 56 -33 103 -60 105 -60 2 0 49 -27 105 -60 56 -33 103 -60 105 -60 2 0 49 -27 105 -60 56 -33 104 -60 107 -60 3 0 25 -13 50 -30 24 -16 48 -30 53 -30 5 0 15 -6 22 -13 7 -6 33 -22 58 -35 25 -13 59 -32 75 -43 17 -10 42 -24 58 -30 15 -6 27 -14 27 -18 0 -3 20 -15 45 -26 25 -11 45 -23 45 -27 0 -3 12 -11 28 -17 15 -6 41 -20 57 -31 17 -11 37 -23 45 -27 8 -4 59 -33 113 -65 54 -32 100 -58 102 -58 2 0 49 -27 105 -60 56 -33 103 -60 105 -60 2 0 48 -26 102 -58 54 -32 105 -61 113 -65 8 -4 29 -16 45 -27 17 -11 42 -25 58 -31 15 -6 27 -14 27 -17 0 -4 20 -16 45 -27 25 -11 45 -23 45 -26 0 -4 12 -12 27 -18 16 -6 42 -20 58 -30 17 -11 50 -30 75 -43 25 -13 47 -25 50 -28 6 -7 130 -80 135 -80 2 0 36 -19 77 -43 40 -24 100 -59 133 -77 33 -18 69 -39 80 -46 16 -12 -167 -14 -1175 -14 -1186 0 -1194 0 -1269 -21 -68 -19 -161 -59 -216 -92 -115 -70 -242 -209 -296 -327 -9 -19 -21 -46 -28 -60 -31 -69 -44 -142 -48 -280 -4 -124 -1 -158 16 -223 38 -145 130 -300 233 -392 65 -58 87 -75 98 -75 6 0 10 -4 10 -9 0 -5 12 -14 27 -20 16 -7 44 -20 63 -31 48 -25 152 -57 231 -69 36 -6 206 -11 378 -11 183 0 310 -4 307 -9 -15 -23 -36 -174 -36 -251 0 -119 29 -257 68 -327 7 -12 12 -29 12 -37 0 -9 4 -16 9 -16 5 0 13 -10 17 -22 15 -50 125 -177 204 -236 19 -15 37 -30 40 -33 12 -13 183 -91 237 -107 54 -16 202 -17 2083 -17 1881 0 2029 1 2083 17 54 16 225 94 237 107 3 3 21 18 40 33 91 68 197 197 230 278 6 14 14 34 19 45 5 11 17 41 27 68 16 45 18 47 38 34 12 -8 48 -29 81 -47 33 -18 93 -53 133 -77 41 -24 76 -43 78 -43 2 0 23 -12 47 -27 23 -15 62 -38 87 -51 73 -40 93 -52 125 -72 17 -11 44 -26 60 -34 41 -20 109 -60 115 -67 5 -6 33 -21 102 -55 96 -48 130 -59 284 -98 93 -24 338 -22 448 4 83 20 150 41 191 59 57 26 113 54 140 71 32 20 88 52 145 83 19 10 49 27 65 38 17 10 37 22 45 26 8 4 59 33 113 65 54 32 100 58 102 58 2 0 49 27 105 60 56 33 103 60 105 60 5 0 129 73 135 80 3 3 25 15 50 28 25 13 59 32 75 43 17 10 42 24 58 30 15 6 27 14 27 19 0 4 8 10 18 13 9 4 44 22 77 42 33 19 69 39 80 45 11 5 27 14 35 20 25 16 221 130 225 130 2 0 49 27 105 60 56 33 103 60 105 60 4 0 250 143 275 160 8 6 26 15 40 21 13 5 27 13 30 17 3 4 16 13 30 20 14 7 48 26 75 42 28 16 59 34 70 40 11 5 27 14 35 20 25 16 221 130 225 130 4 0 201 114 225 130 8 6 22 13 30 17 8 4 58 32 110 63 52 31 102 59 110 63 8 4 29 16 45 27 17 11 44 26 60 34 17 8 53 29 80 45 28 17 59 35 70 41 11 6 34 19 50 30 17 10 50 29 75 42 25 13 47 25 50 28 6 7 130 80 135 80 2 0 49 27 105 60 56 33 103 60 105 60 2 0 48 26 102 58 54 32 105 61 113 65 8 4 29 16 45 27 17 11 42 25 58 31 15 6 27 14 27 17 0 4 20 16 45 27 25 11 45 23 45 26 0 4 12 12 28 18 15 6 41 20 57 30 17 11 50 30 75 43 25 13 51 29 58 36 7 6 17 12 22 12 5 0 29 13 53 30 25 17 47 30 50 30 3 0 51 27 107 60 56 33 103 60 105 60 2 0 48 26 102 58 54 32 105 61 113 65 8 4 29 16 45 27 17 11 41 25 55 30 13 6 27 14 30 18 3 4 25 17 50 30 25 13 59 32 75 42 50 31 71 44 122 70 26 14 54 31 61 38 7 6 17 12 22 12 5 0 29 13 53 30 25 16 47 30 50 30 3 0 51 27 107 60 56 33 103 60 105 60 2 0 49 27 105 60 56 33 104 60 107 60 3 0 25 14 50 30 24 17 48 30 53 30 5 0 15 6 22 12 7 7 33 23 58 36 25 13 59 32 75 42 50 31 71 44 122 70 26 14 50 28 53 32 3 4 17 12 30 18 14 5 39 19 55 30 17 11 37 23 45 27 8 4 59 33 113 65 54 32 100 58 102 58 2 0 49 27 105 60 56 33 103 60 105 60 2 0 49 27 105 60 56 33 104 60 107 60 12 0 142 90 174 121 65 61 122 156 153 253 21 67 22 257 1 323 -32 97 -79 176 -148 245 -37 37 -72 68 -77 68 -5 0 -15 6 -22 13 -33 31 -156 77 -206 77 -20 0 -42 4 -49 8 -8 5 -13 92 -15 312 -3 298 -4 306 -26 347 -50 90 -142 143 -244 142 -119 -1 -215 -66 -256 -174 -21 -53 -22 -73 -22 -341 l0 -284 -525 0 -525 0 0 1725 0 1725 688 0 c811 0 831 2 1007 91 70 34 96 50 110 65 5 5 31 27 57 47 94 75 182 207 234 352 l29 80 3 3193 2 3193 -26 47 c-35 63 -51 79 -109 113 -44 25 -60 29 -133 29 -71 0 -89 -4 -133 -27 -54 -29 -94 -74 -122 -135 -16 -33 -17 -118 -17 -1002 l0 -966 -260 0 -260 0 0 681 c0 772 1 756 -73 832 -70 70 -99 82 -202 81 -105 0 -153 -20 -210 -87 -66 -76 -65 -70 -65 -826 l0 -681 -260 0 -260 0 0 431 c0 417 -1 431 -21 477 -79 173 -310 214 -448 80 -73 -71 -71 -57 -71 -548 l0 -440 -5330 0 -5330 0 0 440 c0 491 2 477 -71 548 -138 134 -369 93 -448 -80 -20 -46 -21 -60 -21 -477 l0 -431 -260 0 -260 0 0 681 c0 756 1 750 -65 826 -57 67 -105 87 -210 87 -72 1 -97 -3 -125 -19 -47 -28 -100 -76 -100 -92 0 -7 -4 -13 -9 -13 -5 0 -17 -24 -25 -54 -14 -47 -16 -146 -16 -735 l0 -681 -260 0 -260 0 0 971 c0 906 -1 973 -17 1002 -36 64 -72 103 -122 130 -44 23 -62 27 -133 27 -73 0 -89 -4 -133 -29z m15325 -2901 l0 -260 -7460 0 -7460 0 0 260 0 260 7460 0 7460 0 0 -260z m0 -1075 l0 -255 -7460 0 -7460 0 0 255 0 255 7460 0 7460 0 0 -255z m-12260 -941 c0 -120 -2 -135 -16 -130 -9 3 -28 9 -42 12 -15 3 -47 12 -72 20 -46 14 -59 18 -260 74 -63 18 -121 34 -127 36 -9 2 -13 24 -13 64 l0 60 265 0 265 0 0 -136z m1060 -153 l0 -289 -37 13 c-21 7 -65 21 -98 30 -33 9 -80 23 -105 30 -25 7 -71 20 -102 29 -32 9 -83 24 -113 33 l-55 17 0 213 0 213 255 0 255 0 0 -289z m6928 -53 l-3 -342 -35 -9 c-68 -16 -156 -39 -200 -52 -64 -19 -145 -41 -220 -61 -36 -9 -85 -22 -110 -29 -25 -8 -71 -21 -102 -29 -32 -9 -84 -23 -115 -32 -32 -8 -78 -21 -103 -29 -25 -7 -74 -20 -110 -29 -75 -20 -156 -42 -220 -61 -25 -7 -74 -20 -110 -30 -36 -9 -87 -23 -115 -31 -27 -7 -72 -20 -100 -28 -27 -7 -79 -21 -115 -31 -36 -10 -85 -23 -110 -30 -25 -7 -74 -20 -110 -30 -36 -10 -85 -23 -110 -30 -25 -7 -74 -20 -110 -30 -36 -9 -83 -23 -105 -30 -99 -33 -175 -35 -1121 -35 -970 0 -1033 2 -1125 39 -13 5 -53 17 -89 26 -36 9 -83 23 -105 30 -22 7 -69 20 -105 30 -36 9 -83 23 -105 30 -22 7 -69 20 -105 30 -36 9 -83 23 -105 30 -22 7 -69 20 -105 30 -36 9 -83 23 -105 30 -22 7 -69 20 -105 30 -36 9 -83 23 -105 30 -22 7 -69 20 -105 30 -36 9 -83 23 -105 30 -22 7 -69 20 -105 30 -36 9 -83 23 -105 30 -22 7 -69 20 -105 30 -36 9 -83 23 -105 30 -22 7 -69 20 -105 30 -36 9 -86 24 -112 33 l-48 16 0 363 0 363 3190 0 3190 0 -2 -342z m1060 145 l-3 -197 -30 -7 c-16 -3 -66 -16 -110 -29 -44 -12 -105 -29 -135 -37 -30 -8 -77 -21 -105 -29 -27 -8 -67 -19 -87 -23 l-38 -8 0 263 0 264 255 0 255 0 -2 -197z m1082 147 c0 -43 -3 -50 -20 -50 -11 0 -37 -6 -57 -14 -35 -13 -77 -24 -223 -63 -74 -19 -159 -42 -192 -53 l-28 -8 0 119 0 119 260 0 260 0 0 -50z m-12690 -65 c45 -13 126 -36 210 -60 25 -7 68 -20 95 -28 28 -8 65 -18 83 -22 l32 -7 0 -810 0 -810 -162 4 c-186 5 -213 13 -283 89 -78 85 -75 49 -75 907 l0 762 28 -6 c15 -3 47 -12 72 -19z m14820 -737 c0 -858 3 -822 -75 -907 -70 -76 -97 -84 -282 -89 l-163 -4 0 813 0 814 68 18 c81 22 166 45 209 58 86 26 201 55 231 58 9 1 12 -158 12 -761z m-1070 -258 l0 -740 -260 0 -260 0 0 664 0 664 53 16 c65 20 133 40 217 61 77 20 150 42 205 60 22 7 41 14 43 14 1 1 2 -332 2 -739z m-12700 696 c25 -8 70 -21 100 -30 30 -8 78 -22 105 -29 28 -8 79 -22 115 -32 36 -9 77 -22 93 -27 l27 -10 0 -654 0 -654 -260 0 -260 0 0 725 c0 817 -9 739 80 711z m11640 -846 l0 -590 -260 0 -260 0 2 522 3 522 35 9 c19 5 58 15 85 23 126 35 154 43 215 58 36 10 83 23 105 31 83 28 75 87 75 -575z m-10555 537 c28 -9 77 -23 110 -32 33 -10 80 -23 105 -30 25 -7 70 -20 100 -28 30 -8 67 -20 83 -26 l27 -11 0 -500 0 -500 -265 0 -265 0 0 576 0 576 28 -5 c15 -3 50 -12 77 -20z m9475 -688 l0 -441 -158 4 c-140 3 -162 6 -202 27 -61 31 -87 57 -118 116 l-27 50 0 280 c0 272 1 280 20 283 11 1 44 9 73 17 28 8 76 21 105 29 83 23 158 44 207 60 25 8 57 15 73 15 l27 1 0 -441z m-8453 397 c21 -7 67 -21 103 -31 36 -9 83 -23 105 -30 22 -7 69 -20 105 -30 36 -9 84 -24 108 -32 l43 -15 -3 -257 c-3 -247 -4 -257 -27 -296 -32 -55 -57 -81 -110 -112 -43 -25 -54 -27 -208 -31 l-163 -5 0 427 c0 234 2 426 5 426 2 0 22 -6 42 -14z m7411 -741 c10 -49 23 -90 49 -152 7 -17 13 -34 13 -38 0 -9 90 -147 109 -166 9 -9 26 -27 37 -40 45 -51 206 -169 229 -169 4 0 21 -6 38 -13 114 -49 226 -66 420 -67 l147 0 0 -1725 0 -1725 -255 0 -255 0 0 153 c0 179 -11 222 -71 291 -55 62 -112 86 -205 86 -55 0 -85 -5 -119 -22 -25 -12 -45 -26 -45 -30 0 -4 -7 -8 -15 -8 -8 0 -15 -7 -15 -15 0 -8 -4 -15 -9 -15 -14 0 -46 -61 -59 -112 -7 -26 -12 -110 -12 -187 l0 -141 -260 0 -260 0 0 299 c0 340 -3 355 -81 426 -59 53 -113 75 -186 75 -78 0 -135 -22 -191 -74 -80 -74 -82 -87 -82 -427 l0 -299 -259 0 -259 0 -5 163 c-2 89 -9 179 -16 199 -15 46 -83 119 -138 147 -32 16 -61 21 -116 21 -120 0 -199 -46 -247 -145 -23 -46 -25 -63 -28 -217 l-3 -168 -395 0 -394 0 0 170 c0 188 -8 217 -75 285 -57 56 -106 75 -195 75 -89 0 -138 -19 -195 -75 -67 -68 -75 -97 -75 -285 l0 -170 -394 0 -395 0 -3 168 c-3 154 -5 171 -28 217 -48 99 -127 145 -247 145 -83 0 -134 -20 -187 -73 -72 -72 -86 -125 -86 -316 l0 -141 -260 0 -260 0 0 302 c0 343 -1 349 -83 425 -55 51 -112 73 -190 73 -73 0 -127 -22 -186 -75 -78 -71 -81 -86 -81 -426 l0 -299 -260 0 -260 0 0 143 c0 89 -5 161 -14 194 -15 56 -63 132 -83 133 -7 0 -13 4 -13 8 0 4 -20 18 -45 30 -34 17 -64 22 -119 22 -93 0 -150 -24 -205 -86 -60 -69 -71 -112 -71 -291 l0 -153 -255 0 -255 0 0 1725 0 1725 148 0 c193 1 305 18 419 67 17 7 34 13 38 13 23 0 184 118 229 169 11 13 28 31 37 40 19 19 109 157 109 166 0 4 6 21 13 38 50 117 66 226 67 439 l0 167 43 -13 c44 -14 116 -35 207 -61 30 -9 78 -22 105 -30 28 -8 73 -21 100 -29 113 -31 135 -40 135 -52 0 -8 -9 -55 -19 -106 -78 -378 -68 -872 25 -1180 8 -26 14 -53 14 -61 0 -19 69 -223 104 -307 26 -63 135 -285 159 -325 55 -91 173 -265 179 -265 4 0 8 -7 8 -15 0 -8 4 -15 8 -15 5 0 23 -21 42 -46 54 -75 217 -245 325 -339 86 -74 232 -185 244 -185 6 0 11 -4 11 -8 0 -5 10 -14 23 -21 12 -6 36 -20 52 -31 17 -11 39 -24 50 -30 11 -6 36 -20 55 -31 183 -111 497 -232 735 -283 431 -93 904 -82 1295 31 227 65 461 161 610 252 19 11 44 25 55 31 11 6 34 19 50 30 17 11 40 25 53 31 12 7 22 16 22 21 0 4 5 8 11 8 12 0 158 111 244 185 108 94 271 264 325 339 19 25 37 46 42 46 4 0 8 7 8 15 0 8 4 15 8 15 4 0 44 55 87 123 101 154 100 152 130 212 14 28 30 57 35 65 38 67 116 258 155 380 58 187 82 295 109 490 39 283 10 755 -60 979 -8 25 -14 48 -14 52 0 9 68 30 270 84 36 10 85 23 110 30 25 7 74 20 110 30 36 10 76 21 90 25 l25 7 7 -226 c4 -124 11 -248 16 -276z m-1147 150 c91 -398 89 -688 -8 -1060 -24 -93 -55 -189 -65 -200 -4 -5 -8 -16 -8 -24 0 -18 -149 -320 -166 -339 -7 -6 -16 -21 -19 -32 -3 -11 -11 -20 -16 -20 -5 0 -9 -5 -9 -10 0 -16 -145 -205 -196 -257 -24 -24 -44 -47 -44 -49 0 -3 -16 -20 -36 -37 -20 -18 -51 -46 -68 -63 -17 -16 -53 -48 -81 -70 -27 -21 -51 -42 -53 -46 -2 -5 -10 -8 -18 -8 -8 0 -14 -4 -14 -8 0 -10 -155 -112 -170 -112 -5 0 -10 -4 -10 -8 0 -10 -262 -142 -282 -142 -7 0 -22 -7 -32 -15 -11 -8 -29 -15 -41 -15 -12 0 -25 -4 -30 -9 -6 -6 -28 -14 -50 -20 -22 -6 -83 -21 -135 -35 -188 -49 -280 -60 -510 -59 -229 0 -318 10 -510 60 -52 13 -113 28 -135 34 -22 6 -44 14 -49 20 -6 5 -19 9 -31 9 -12 0 -30 7 -41 15 -10 8 -25 15 -32 15 -20 0 -282 132 -282 142 0 4 -5 8 -10 8 -15 0 -170 102 -170 112 0 4 -6 8 -14 8 -8 0 -16 3 -18 8 -1 4 -25 25 -53 46 -27 22 -69 59 -92 83 -24 24 -47 43 -53 43 -5 0 -10 4 -10 8 0 4 -27 36 -60 70 -67 70 -210 255 -210 272 0 5 -4 10 -9 10 -5 0 -13 9 -16 20 -3 11 -12 26 -19 32 -17 19 -166 321 -166 339 0 8 -4 19 -8 25 -10 10 -40 105 -65 199 -88 333 -97 651 -29 957 19 86 23 89 89 64 21 -7 67 -21 103 -31 36 -9 83 -23 105 -30 22 -7 69 -20 105 -30 36 -9 83 -23 105 -30 22 -7 69 -20 105 -30 36 -9 85 -23 110 -30 130 -39 122 -39 1180 -42 1096 -4 1128 -3 1285 43 75 22 142 40 215 59 36 10 85 23 110 30 64 19 145 41 220 61 36 9 85 22 110 29 25 8 72 21 105 30 33 9 78 23 100 30 63 21 88 15 96 -20z m-6861 -2520 l0 -1725 -265 0 -265 0 0 1725 0 1725 265 0 265 0 0 -1725z m10130 0 l0 -1725 -260 0 -260 0 0 1725 0 1725 260 0 260 0 0 -1725z m2125 -2286 c7 -10 -21 -49 -36 -49 -4 0 -52 -26 -106 -58 -54 -32 -105 -61 -113 -65 -8 -4 -28 -16 -45 -27 -16 -11 -41 -25 -55 -30 -13 -6 -27 -14 -30 -18 -3 -4 -27 -18 -53 -32 -51 -26 -72 -39 -122 -70 -16 -10 -50 -29 -75 -42 -25 -13 -47 -26 -50 -30 -3 -4 -17 -12 -30 -18 -14 -5 -38 -19 -55 -30 -16 -11 -37 -23 -45 -27 -8 -4 -59 -33 -113 -65 -54 -32 -100 -58 -102 -58 -2 0 -49 -27 -105 -60 -56 -33 -103 -60 -105 -60 -2 0 -49 -27 -105 -60 -56 -33 -103 -60 -105 -60 -2 0 -60 -34 -128 -75 -69 -41 -128 -75 -131 -75 -4 0 -24 -11 -45 -24 -34 -22 -503 -292 -631 -364 -25 -14 -76 -44 -115 -67 -38 -22 -77 -44 -85 -48 -8 -4 -28 -16 -45 -27 -16 -11 -39 -24 -50 -29 -12 -5 -63 -34 -113 -65 -51 -31 -94 -56 -97 -56 -2 0 -61 -34 -130 -75 -70 -41 -128 -75 -130 -75 -2 0 -49 -27 -105 -60 -56 -33 -103 -60 -105 -60 -2 0 -49 -27 -105 -60 -56 -33 -104 -60 -107 -60 -3 0 -25 -14 -50 -30 -24 -17 -48 -30 -53 -30 -5 0 -15 -6 -22 -12 -7 -7 -33 -23 -58 -36 -25 -13 -58 -32 -75 -42 -16 -11 -39 -24 -50 -30 -11 -6 -42 -24 -70 -41 -27 -16 -63 -37 -80 -45 -16 -8 -43 -23 -60 -34 -16 -11 -37 -23 -45 -27 -8 -4 -59 -33 -113 -65 -54 -32 -100 -58 -102 -58 -2 0 -49 -27 -105 -60 -56 -33 -104 -60 -107 -60 -3 0 -25 -13 -50 -30 -24 -16 -48 -30 -53 -30 -5 0 -15 -6 -22 -13 -7 -6 -33 -22 -58 -35 -25 -13 -58 -32 -75 -43 -16 -10 -42 -24 -57 -30 -16 -6 -28 -14 -28 -19 0 -4 -8 -10 -17 -13 -10 -4 -45 -22 -78 -42 -33 -19 -69 -39 -80 -45 -11 -5 -27 -14 -35 -20 -25 -16 -221 -130 -225 -130 -2 0 -49 -27 -105 -60 -56 -33 -103 -60 -105 -60 -5 0 -129 -73 -135 -80 -3 -3 -25 -15 -50 -28 -25 -13 -58 -32 -75 -43 -16 -10 -42 -24 -57 -30 -16 -6 -28 -14 -28 -19 0 -4 -8 -10 -17 -13 -10 -4 -45 -22 -78 -42 -33 -19 -69 -39 -80 -45 -11 -5 -27 -14 -35 -20 -25 -16 -221 -130 -225 -130 -2 0 -49 -27 -105 -60 -56 -33 -103 -60 -105 -60 -2 0 -48 -26 -102 -58 -54 -32 -105 -61 -113 -65 -8 -4 -28 -16 -45 -27 -16 -11 -42 -25 -57 -31 -16 -6 -28 -14 -28 -17 0 -4 -20 -16 -45 -27 -25 -11 -45 -23 -45 -26 0 -4 -12 -12 -27 -18 -16 -6 -41 -20 -58 -30 -94 -62 -193 -109 -267 -130 -152 -43 -280 -16 -468 98 -19 11 -44 25 -55 31 -11 6 -47 26 -80 45 -33 20 -68 38 -77 42 -10 3 -18 9 -18 13 0 5 -12 13 -27 19 -16 6 -41 20 -58 30 -16 11 -50 30 -75 43 -25 13 -51 29 -58 36 -7 6 -17 12 -22 12 -5 0 -29 14 -53 30 -25 17 -47 30 -50 30 -3 0 -51 27 -107 60 -56 33 -103 60 -105 60 -2 0 -49 27 -105 60 -56 33 -103 60 -105 60 -2 0 -48 26 -102 58 -54 32 -105 61 -113 65 -8 4 -28 16 -45 27 -16 11 -39 24 -50 30 -11 5 -27 14 -35 20 -25 16 -221 130 -225 130 -4 0 -200 114 -225 130 -8 6 -24 15 -35 20 -11 6 -47 26 -80 45 -33 20 -68 38 -77 42 -10 3 -18 9 -18 13 0 5 -12 13 -27 19 -16 6 -41 20 -58 30 -16 11 -50 30 -75 43 -25 13 -51 29 -58 36 -7 6 -17 12 -22 12 -5 0 -29 14 -53 30 -25 17 -47 30 -50 30 -3 0 -51 27 -107 60 -56 33 -103 60 -105 60 -2 0 -48 26 -102 58 -54 32 -105 61 -113 65 -8 4 -28 16 -45 27 -16 11 -43 26 -60 34 -16 8 -52 29 -80 45 -27 17 -59 35 -70 41 -11 6 -33 19 -50 30 -16 10 -50 29 -75 42 -25 13 -51 29 -58 36 -7 6 -17 12 -22 12 -5 0 -29 14 -53 30 -25 17 -47 30 -50 30 -3 0 -51 27 -107 60 -56 33 -103 60 -105 60 -2 0 -49 27 -105 60 -56 33 -104 60 -107 60 -3 0 -25 14 -50 30 -24 17 -47 30 -50 30 -3 0 -39 20 -80 45 -40 25 -76 45 -78 45 -2 0 -46 25 -97 56 -50 31 -101 60 -113 65 -11 5 -33 18 -50 29 -16 11 -37 23 -45 27 -8 4 -46 26 -85 48 -38 23 -90 53 -115 67 -25 14 -180 103 -345 198 -165 95 -324 186 -352 201 -29 16 -81 46 -115 67 -56 34 -218 128 -348 200 -25 14 -78 45 -118 69 -41 24 -75 43 -77 43 -2 0 -49 27 -105 60 -56 33 -103 60 -105 60 -2 0 -48 26 -102 58 -54 32 -105 61 -113 65 -8 4 -28 16 -45 27 -16 11 -42 25 -57 31 -16 6 -28 14 -28 17 0 4 -20 16 -45 27 -25 11 -45 23 -45 26 0 4 -12 12 -27 18 -16 6 -41 20 -58 30 -16 11 -50 30 -75 43 -25 13 -51 29 -58 36 -7 6 -17 12 -22 12 -5 0 -29 14 -53 30 -25 17 -47 30 -50 30 -3 0 -51 27 -107 60 -56 33 -105 60 -109 60 -15 0 -43 39 -36 49 9 15 14901 15 14910 0z m-11407 -2678 c27 -16 76 -44 108 -62 33 -17 77 -44 99 -57 22 -14 60 -37 85 -50 74 -41 94 -52 125 -72 17 -11 39 -24 50 -30 11 -5 47 -26 80 -45 33 -19 67 -38 75 -42 8 -3 25 -14 37 -23 l22 -17 -27 -24 c-44 -39 -84 -57 -143 -64 -131 -15 -199 -47 -247 -117 -41 -61 -55 -110 -50 -181 8 -121 78 -209 197 -246 23 -7 259 -11 715 -11 642 0 683 -1 711 -18 17 -10 56 -33 88 -51 152 -85 152 -84 155 -127 5 -57 -16 -151 -43 -195 -30 -47 -80 -87 -137 -110 -40 -17 -154 -18 -1939 -18 -1737 -1 -1900 0 -1945 16 -64 21 -116 62 -151 121 -25 41 -28 57 -28 127 1 74 3 84 34 131 47 71 111 111 192 119 78 8 169 33 169 46 0 5 5 9 10 9 14 0 55 44 89 94 23 35 26 48 26 131 0 83 -3 96 -27 132 -35 53 -72 93 -87 93 -6 0 -11 4 -11 10 0 31 -77 34 -810 40 -676 5 -738 6 -770 23 -36 17 -81 55 -111 94 -21 26 -49 109 -49 144 0 33 39 139 51 139 5 0 9 5 9 10 0 13 37 50 49 50 5 0 11 4 13 9 2 4 23 18 48 29 45 20 55 20 1667 21 l1622 1 49 -29z"/>
 <path d="M3655 4264 c-211 -67 -261 -345 -87 -483 22 -17 44 -31 50 -31 6 0 12 -3 14 -7 5 -11 66 -53 77 -53 5 0 11 -3 13 -7 5 -11 66 -53 77 -53 5 0 11 -3 13 -7 5 -11 66 -53 77 -53 5 0 11 -3 13 -7 5 -11 66 -53 77 -53 5 0 11 -3 13 -7 5 -11 66 -53 77 -53 5 0 11 -3 13 -7 5 -11 66 -53 77 -53 5 0 11 -3 13 -7 5 -11 66 -53 77 -53 5 0 11 -4 13 -8 8 -20 154 -105 201 -118 67 -18 87 -17 155 2 76 22 161 106 180 177 31 121 -8 242 -101 307 -23 16 -46 33 -52 38 -5 4 -28 19 -50 32 -22 13 -42 27 -45 30 -3 3 -23 17 -45 30 -22 13 -45 29 -51 35 -6 5 -27 19 -47 30 -20 11 -37 23 -37 27 0 5 -5 8 -10 8 -12 0 -73 41 -78 53 -2 4 -8 7 -13 7 -11 0 -72 42 -77 53 -2 4 -8 7 -13 7 -11 0 -72 42 -77 53 -2 4 -8 7 -13 7 -11 0 -72 42 -77 53 -2 4 -8 7 -13 7 -9 0 -68 38 -79 51 -3 3 -31 18 -63 33 -73 34 -137 40 -202 20z"/>
 <path d="M5545 4271 c-90 -24 -159 -79 -196 -155 -26 -55 -26 -168 1 -227 20 -46 72 -109 89 -109 5 0 11 -3 13 -7 5 -11 66 -53 77 -53 5 0 11 -3 13 -7 5 -11 66 -53 77 -53 5 0 11 -3 13 -7 5 -11 66 -53 77 -53 5 0 11 -3 13 -7 5 -11 66 -53 77 -53 5 0 11 -3 13 -7 5 -11 66 -53 77 -53 5 0 11 -3 13 -7 5 -11 66 -53 77 -53 5 0 11 -3 13 -7 5 -11 66 -53 77 -53 5 0 11 -3 13 -7 5 -12 66 -53 78 -53 5 0 10 -3 10 -7 0 -9 43 -36 110 -70 115 -58 254 -29 337 71 33 41 63 125 63 178 0 51 -38 144 -74 181 -38 39 -846 578 -899 601 -48 19 -123 27 -162 17z"/>
 <path d="M10313 4261 c-60 -22 -870 -558 -919 -609 -34 -35 -74 -137 -74 -187 0 -38 32 -128 58 -163 77 -102 242 -137 354 -74 72 40 98 57 98 65 0 4 5 7 10 7 12 0 73 41 78 53 2 4 8 7 13 7 11 0 72 42 77 53 2 4 8 7 13 7 11 0 72 42 77 53 2 4 8 7 13 7 11 0 72 42 77 53 2 4 8 7 13 7 11 0 72 42 77 53 2 4 8 7 13 7 11 0 72 42 77 53 2 4 8 7 13 7 11 0 72 42 77 53 2 4 8 7 13 7 11 0 72 42 77 53 2 4 8 7 13 7 15 0 68 60 90 102 25 49 27 181 2 235 -26 58 -104 127 -164 146 -66 22 -111 21 -176 -2z"/>
 <path d="M12185 4261 c-47 -17 -93 -39 -105 -51 -14 -14 -70 -50 -79 -50 -5 0 -11 -3 -13 -7 -5 -11 -66 -53 -77 -53 -5 0 -11 -3 -13 -7 -5 -11 -66 -53 -77 -53 -5 0 -11 -3 -13 -7 -5 -11 -66 -53 -77 -53 -5 0 -11 -3 -13 -7 -5 -12 -66 -53 -78 -53 -5 0 -10 -3 -10 -8 0 -4 -17 -16 -37 -27 -20 -11 -41 -25 -47 -30 -6 -6 -29 -22 -51 -35 -22 -13 -42 -27 -45 -30 -3 -3 -23 -17 -45 -30 -22 -13 -42 -26 -45 -30 -3 -3 -24 -18 -48 -34 -138 -94 -156 -300 -36 -420 47 -47 90 -68 154 -73 105 -10 137 1 272 89 67 45 125 85 126 90 2 4 8 8 13 8 11 0 72 42 77 53 2 4 8 7 13 7 11 0 72 42 77 53 2 4 8 7 13 7 11 0 72 42 77 53 2 4 8 7 13 7 11 0 72 42 77 53 2 4 8 7 13 7 11 0 72 42 77 53 2 4 8 7 13 7 11 0 72 42 77 53 2 4 10 7 17 7 12 0 97 78 120 111 33 45 45 165 22 229 -31 91 -83 140 -181 173 -63 21 -98 21 -161 -2z"/>
 <path d="M5745 2915 c-105 -54 -145 -121 -145 -247 0 -88 16 -134 64 -186 33 -37 855 -582 909 -603 62 -25 122 -24 191 2 109 42 176 139 176 254 0 45 -28 145 -41 145 -5 0 -9 6 -9 13 0 12 -65 77 -76 77 -8 0 -69 44 -72 53 -2 4 -8 7 -13 7 -11 0 -72 42 -77 53 -2 4 -8 7 -13 7 -11 0 -72 42 -77 53 -2 4 -8 7 -13 7 -11 0 -72 42 -77 53 -2 4 -8 7 -13 7 -11 0 -72 42 -77 53 -2 4 -8 7 -13 7 -11 0 -72 42 -77 53 -2 4 -8 7 -13 7 -11 0 -72 42 -77 53 -2 4 -8 7 -13 7 -9 0 -65 36 -79 50 -6 6 -31 22 -106 65 -55 31 -68 35 -135 35 -59 0 -84 -5 -124 -25z"/>
 <path d="M9995 2905 c-78 -46 -99 -59 -105 -65 -14 -14 -70 -50 -79 -50 -5 0 -11 -3 -13 -7 -5 -11 -66 -53 -77 -53 -5 0 -11 -3 -13 -7 -5 -11 -66 -53 -77 -53 -5 0 -11 -3 -13 -7 -5 -11 -66 -53 -77 -53 -5 0 -11 -3 -13 -7 -5 -11 -66 -53 -77 -53 -5 0 -11 -3 -13 -7 -5 -11 -66 -53 -77 -53 -5 0 -11 -3 -13 -7 -5 -11 -66 -53 -77 -53 -5 0 -11 -3 -13 -7 -3 -9 -64 -53 -72 -53 -11 0 -76 -69 -76 -79 0 -6 -4 -11 -9 -11 -12 0 -41 -99 -41 -140 0 -119 66 -217 176 -259 69 -26 129 -27 192 -2 60 24 899 583 921 614 46 65 55 92 55 177 0 93 -12 125 -69 188 -51 57 -112 82 -202 82 -71 0 -83 -3 -138 -35z"/>
 </g>

</svg>