<!DOCTYPE svg PUBLIC "-//W3C//DTD SVG 20010904//EN" "http://www.w3.org/TR/2001/REC-SVG-20010904/DTD/svg10.dtd">
<svg version="1.0" xmlns="http://www.w3.org/2000/svg" width="1600px" height="1520px" viewBox="0 0 16000 15200" preserveAspectRatio="xMidYMid meet">
<g id="layer101" fill="#000000" stroke="none">
 <path d="M679 15179 c-49 -26 -90 -66 -120 -114 l-24 -40 -3 -442 -3 -442 -167 -3 c-153 -3 -171 -5 -217 -28 -99 -48 -145 -125 -145 -245 0 -90 17 -136 71 -192 64 -66 105 -78 291 -81 l167 -3 3 -307 c3 -342 3 -340 76 -411 60 -59 97 -74 192 -74 100 0 148 19 208 88 68 77 72 103 72 423 l0 282 70 0 c58 0 72 -3 78 -18 13 -32 76 -137 84 -140 4 -2 8 -8 8 -12 0 -5 46 -87 103 -182 57 -95 106 -180 110 -188 9 -18 22 -39 60 -97 15 -24 27 -45 27 -49 0 -3 13 -25 28 -48 15 -22 31 -48 35 -56 4 -8 21 -37 37 -65 17 -27 38 -65 47 -82 9 -18 20 -33 25 -33 4 0 8 -4 8 -9 0 -5 27 -55 60 -111 33 -56 60 -106 60 -111 0 -5 4 -9 9 -9 5 0 13 -9 16 -21 4 -12 18 -37 32 -58 14 -20 29 -45 34 -56 5 -11 18 -33 29 -50 11 -16 24 -39 30 -50 10 -21 18 -33 62 -102 14 -22 29 -51 33 -62 3 -12 11 -21 16 -21 5 0 9 -4 9 -10 0 -5 46 -87 103 -182 57 -95 106 -180 110 -188 9 -18 22 -39 60 -97 15 -24 27 -45 27 -49 0 -3 13 -25 28 -48 15 -22 31 -48 35 -56 4 -8 21 -37 37 -65 17 -27 38 -65 47 -82 9 -18 20 -33 25 -33 4 0 8 -4 8 -9 0 -5 27 -55 60 -111 33 -56 60 -106 60 -111 0 -5 4 -9 9 -9 5 0 13 -9 16 -21 4 -11 19 -40 33 -62 44 -69 52 -81 62 -102 6 -11 19 -33 30 -50 11 -16 24 -39 29 -50 5 -11 20 -36 34 -56 14 -21 28 -46 32 -58 3 -12 11 -21 16 -21 5 0 9 -4 9 -9 0 -13 73 -135 82 -139 5 -2 8 -8 8 -13 0 -6 26 -54 58 -107 32 -53 62 -104 66 -112 8 -17 21 -39 59 -97 15 -24 27 -45 27 -48 0 -3 12 -24 27 -48 36 -55 43 -67 72 -119 13 -24 36 -62 52 -86 16 -24 29 -45 29 -47 0 -3 34 -61 75 -130 41 -69 75 -127 75 -129 0 -3 12 -22 26 -43 14 -21 30 -47 35 -58 5 -11 18 -33 29 -50 11 -16 24 -39 30 -50 6 -11 19 -33 30 -50 11 -16 24 -39 30 -50 6 -11 19 -33 30 -50 11 -16 23 -37 27 -45 24 -47 78 -135 85 -138 4 -2 8 -8 8 -13 0 -6 26 -54 58 -107 32 -53 70 -117 84 -142 14 -25 88 -151 165 -280 77 -129 153 -257 168 -285 15 -27 33 -57 40 -65 6 -8 15 -22 19 -30 3 -8 20 -37 36 -65 17 -27 38 -65 47 -83 9 -17 20 -32 25 -32 4 0 8 -4 8 -10 0 -5 46 -87 103 -183 57 -95 107 -180 110 -188 4 -8 16 -27 27 -44 11 -16 24 -39 30 -50 6 -11 24 -42 40 -70 17 -27 38 -65 47 -82 9 -18 20 -33 25 -33 4 0 8 -4 8 -10 0 -5 46 -87 103 -182 57 -95 106 -180 110 -188 9 -18 22 -39 60 -97 15 -24 27 -45 27 -49 0 -3 13 -25 28 -48 15 -22 31 -48 35 -56 4 -8 21 -37 37 -65 17 -27 38 -65 47 -82 9 -18 20 -33 25 -33 4 0 8 -4 8 -9 0 -5 27 -55 60 -111 33 -56 60 -106 60 -111 0 -5 4 -9 9 -9 5 0 13 -9 16 -21 4 -12 18 -37 32 -58 14 -20 29 -45 34 -56 5 -11 18 -33 29 -50 11 -16 24 -39 30 -50 10 -21 18 -33 62 -102 14 -22 29 -51 33 -62 3 -12 11 -21 16 -21 5 0 9 -4 9 -10 0 -5 46 -87 103 -182 57 -95 106 -180 110 -188 9 -18 22 -39 60 -97 15 -24 27 -45 27 -49 0 -3 13 -25 28 -48 15 -22 31 -48 35 -56 4 -8 21 -37 37 -65 17 -27 38 -65 47 -82 9 -18 20 -33 25 -33 4 0 8 -4 8 -9 0 -5 27 -55 60 -111 33 -56 60 -106 60 -111 0 -5 4 -9 9 -9 5 0 13 -9 16 -21 4 -11 19 -40 33 -62 44 -69 52 -81 62 -102 6 -11 19 -33 30 -50 11 -16 24 -39 29 -50 5 -11 20 -36 34 -56 14 -21 28 -46 32 -58 3 -12 11 -21 16 -21 5 0 9 -4 9 -9 0 -13 73 -135 82 -139 5 -2 8 -8 8 -13 0 -6 26 -54 58 -107 32 -53 62 -104 66 -112 8 -17 21 -39 59 -97 15 -24 27 -45 27 -49 0 -3 13 -25 28 -48 15 -22 31 -48 35 -56 4 -8 21 -37 37 -65 17 -27 38 -65 47 -82 9 -18 20 -33 25 -33 4 0 8 -4 8 -9 0 -5 27 -55 60 -111 33 -56 60 -106 60 -111 0 -5 4 -9 8 -9 5 0 16 -15 25 -32 9 -18 30 -55 47 -83 16 -27 34 -59 40 -70 6 -11 19 -33 30 -50 11 -16 24 -39 29 -50 5 -11 20 -36 33 -55 13 -19 27 -42 31 -50 4 -8 21 -37 37 -65 17 -27 38 -65 47 -82 9 -18 20 -33 25 -33 4 0 8 -6 8 -14 0 -21 71 -89 118 -114 60 -31 184 -31 244 0 42 22 118 92 118 110 0 5 5 14 11 21 5 7 25 37 43 67 l32 55 60 -5 c32 -3 838 -5 1789 -5 1618 0 1733 1 1775 17 25 10 51 18 58 18 12 0 142 60 152 70 3 3 24 18 48 34 23 16 42 33 42 37 0 5 4 9 10 9 11 0 50 36 50 46 0 3 13 17 29 32 15 15 48 59 73 97 39 62 53 91 90 185 15 39 38 189 38 255 0 61 -24 227 -35 245 -4 6 77 10 224 10 l231 0 66 -68 c88 -89 244 -296 244 -322 0 -5 6 -15 13 -22 28 -30 121 -245 150 -348 33 -116 39 -147 53 -249 25 -183 14 -439 -26 -592 -30 -117 -47 -170 -80 -254 -24 -60 -104 -217 -135 -263 -19 -30 -35 -57 -35 -62 0 -5 -4 -10 -8 -12 -4 -1 -21 -21 -37 -43 -53 -71 -69 -88 -171 -190 -55 -55 -120 -113 -145 -129 -24 -17 -49 -35 -54 -40 -11 -12 -24 -20 -105 -68 -76 -44 -123 -96 -148 -163 -27 -71 -28 -119 -2 -189 34 -90 77 -128 245 -214 183 -95 399 -164 650 -208 141 -25 526 -25 675 0 184 31 390 86 462 122 14 8 31 14 36 14 17 0 213 90 222 102 3 4 17 12 30 18 14 5 39 19 55 30 17 11 37 23 45 27 23 10 75 47 78 56 2 4 8 7 13 7 13 0 109 72 109 82 0 4 4 8 9 8 29 0 351 322 351 351 0 5 4 9 9 9 4 0 21 19 37 42 16 24 32 45 37 46 4 2 7 10 7 17 0 7 3 15 8 17 8 3 45 55 55 78 4 8 16 29 26 45 18 28 112 215 131 260 5 11 18 42 29 69 12 27 21 55 21 62 0 7 6 28 14 46 13 31 26 76 60 216 34 137 46 268 46 481 0 329 -48 579 -164 856 -31 74 -120 250 -128 253 -4 2 -8 8 -8 14 0 21 -187 288 -202 288 -4 0 -8 5 -8 11 0 5 -36 47 -79 92 l-79 81 45 86 c74 140 87 193 87 355 0 115 -4 152 -22 207 -97 306 -309 509 -609 587 l-82 21 -2078 0 c-2231 0 -2094 3 -2248 -47 -78 -26 -190 -86 -255 -138 -37 -30 -131 -125 -162 -164 -43 -54 -105 -189 -127 -278 -23 -92 -29 -271 -10 -320 6 -15 14 -47 18 -70 l8 -43 -308 0 c-289 0 -308 1 -302 18 3 9 11 24 18 32 7 8 15 22 19 30 3 8 15 29 26 45 11 17 24 39 29 50 5 11 20 36 34 56 14 21 28 46 32 58 3 12 11 21 16 21 5 0 9 4 9 9 0 5 27 55 60 111 33 56 60 106 60 111 0 5 4 9 8 9 5 0 16 15 25 33 9 17 30 55 47 82 16 28 33 57 37 65 4 8 20 34 35 56 15 23 28 45 28 48 0 4 12 25 27 49 38 58 51 79 60 97 4 8 53 93 110 188 57 95 103 177 103 182 0 6 4 10 9 10 5 0 13 9 16 21 4 12 18 37 32 58 14 20 29 45 34 56 5 11 18 34 29 50 11 17 24 39 30 50 5 11 16 29 22 40 7 10 24 37 38 60 13 22 30 49 37 60 7 11 16 27 20 35 4 8 33 59 65 113 32 54 58 103 58 108 0 5 4 9 8 9 5 0 16 15 25 33 9 17 30 55 47 82 16 28 33 57 37 65 4 8 20 34 35 56 15 23 28 45 28 48 0 4 12 25 27 49 38 58 51 79 60 97 4 8 53 93 110 188 57 95 103 177 103 182 0 6 4 10 8 10 5 0 16 15 25 33 9 17 30 55 47 82 16 28 33 57 36 65 4 8 13 22 19 30 7 8 25 38 40 65 15 28 69 121 121 207 52 87 94 162 94 168 0 5 4 10 8 10 5 0 16 15 25 33 9 17 30 55 47 82 16 28 33 57 36 65 4 8 13 22 19 30 7 8 25 38 40 65 15 28 91 156 168 285 77 129 150 253 162 275 13 22 70 119 127 215 57 96 107 182 111 190 4 8 16 29 27 45 11 17 24 39 30 50 6 11 19 34 30 50 11 17 24 39 30 50 6 11 19 34 30 50 11 17 24 39 29 50 5 11 21 37 35 58 14 21 26 40 26 43 0 2 34 60 75 129 41 69 75 127 75 130 0 2 13 23 29 47 16 24 39 62 52 86 29 52 36 64 72 119 15 24 27 45 27 48 0 3 12 24 27 48 38 58 51 79 60 97 4 8 53 93 110 188 57 95 103 177 103 182 0 6 4 10 9 10 5 0 13 9 16 21 4 11 19 40 33 62 44 69 52 81 62 102 6 11 19 34 30 50 11 17 24 39 29 50 5 11 20 36 34 56 14 21 28 46 32 58 3 12 11 21 16 21 5 0 9 4 9 9 0 5 27 55 60 111 33 56 60 106 60 111 0 5 4 9 8 9 5 0 16 15 25 33 9 17 30 55 47 82 16 28 33 57 37 65 4 8 20 34 35 56 15 23 28 45 28 48 0 4 12 25 27 49 38 58 51 79 60 97 4 8 53 93 110 188 57 95 103 177 103 182 0 6 4 10 8 10 5 0 16 15 25 33 9 17 30 55 47 82 16 28 34 59 40 70 6 11 19 34 30 50 11 17 23 37 27 45 3 8 18 33 32 55 37 58 49 78 58 95 4 8 33 59 65 113 32 54 58 103 58 108 0 5 4 9 8 9 5 0 16 15 25 33 9 17 30 55 47 82 16 28 33 57 37 65 4 8 18 31 31 50 13 19 28 44 33 55 5 11 18 34 29 50 11 17 24 39 30 50 5 11 14 27 20 35 34 51 220 372 220 380 0 4 4 10 8 12 8 3 71 108 84 140 6 15 20 18 78 18 l70 0 0 -282 c0 -320 4 -346 72 -423 60 -69 108 -88 208 -88 95 0 132 15 192 74 73 71 73 69 76 411 l3 307 167 3 c186 3 227 15 291 81 54 56 71 102 71 192 0 120 -46 197 -145 245 -46 23 -64 25 -217 28 l-167 3 -3 442 -3 442 -24 40 c-58 95 -130 135 -241 135 -97 0 -138 -17 -201 -82 -78 -81 -79 -88 -79 -564 l0 -414 -169 0 c-196 0 -256 -14 -317 -74 -24 -24 -144 -220 -144 -236 0 -5 -4 -10 -8 -10 -5 0 -16 -15 -25 -32 -9 -18 -30 -55 -47 -83 -16 -27 -33 -57 -37 -65 -4 -8 -18 -31 -31 -50 -13 -19 -28 -44 -33 -55 -5 -11 -18 -33 -29 -50 -11 -16 -24 -39 -30 -50 -5 -11 -14 -27 -20 -35 -36 -55 -220 -373 -220 -380 0 -6 -4 -10 -8 -10 -5 0 -16 -15 -25 -32 -9 -18 -30 -55 -47 -83 -16 -27 -33 -57 -36 -65 -4 -8 -13 -22 -19 -30 -7 -8 -27 -42 -45 -75 -18 -33 -39 -67 -46 -76 -8 -8 -14 -18 -14 -22 0 -3 -34 -62 -75 -131 -41 -69 -75 -130 -75 -135 0 -5 -3 -11 -8 -13 -9 -4 -82 -126 -82 -139 0 -5 -4 -9 -9 -9 -5 0 -13 -9 -16 -21 -4 -12 -18 -37 -32 -58 -14 -20 -29 -45 -34 -56 -5 -11 -18 -33 -29 -50 -11 -16 -24 -39 -30 -50 -5 -11 -14 -27 -20 -35 -34 -51 -220 -372 -220 -380 0 -4 -3 -10 -8 -12 -7 -3 -82 -125 -82 -134 0 -3 -20 -36 -45 -74 -25 -38 -45 -71 -45 -73 0 -3 -68 -118 -150 -256 -82 -139 -150 -256 -150 -261 0 -6 -4 -10 -10 -10 -5 0 -10 -5 -10 -12 0 -7 -11 -28 -23 -47 -23 -34 -214 -357 -244 -411 -8 -14 -28 -47 -44 -75 -16 -27 -37 -65 -46 -82 -9 -18 -20 -33 -25 -33 -4 0 -8 -4 -8 -9 0 -5 -27 -55 -60 -111 -33 -56 -60 -106 -60 -111 0 -5 -4 -9 -8 -9 -5 0 -16 -15 -25 -32 -9 -18 -30 -55 -47 -83 -16 -27 -33 -57 -36 -65 -4 -8 -13 -22 -19 -30 -7 -8 -27 -42 -45 -75 -18 -33 -38 -67 -45 -75 -6 -8 -15 -22 -19 -30 -4 -8 -12 -24 -19 -35 -7 -11 -27 -47 -46 -80 -19 -33 -37 -62 -40 -65 -4 -3 -15 -23 -26 -45 -11 -22 -23 -42 -26 -45 -3 -3 -21 -32 -40 -65 -19 -33 -39 -69 -46 -80 -7 -11 -16 -27 -20 -35 -4 -8 -18 -31 -31 -50 -13 -19 -28 -44 -33 -55 -5 -11 -18 -33 -29 -50 -11 -16 -24 -39 -30 -50 -6 -11 -24 -42 -40 -70 -17 -27 -38 -65 -47 -82 -9 -18 -20 -33 -25 -33 -4 0 -8 -4 -8 -9 0 -5 -27 -55 -60 -111 -33 -56 -60 -106 -60 -111 0 -5 -4 -9 -8 -9 -5 0 -16 -15 -25 -32 -9 -18 -30 -55 -47 -83 -16 -27 -33 -57 -36 -65 -4 -8 -13 -22 -19 -30 -7 -8 -27 -42 -45 -75 -18 -33 -38 -67 -45 -75 -6 -8 -15 -22 -19 -30 -4 -8 -12 -24 -19 -35 -7 -11 -27 -47 -46 -80 -19 -33 -37 -62 -40 -65 -4 -3 -15 -23 -26 -45 -11 -22 -22 -42 -25 -45 -11 -10 -80 -132 -80 -141 0 -5 -4 -9 -9 -9 -5 0 -13 -9 -16 -21 -4 -12 -18 -37 -32 -58 -14 -20 -29 -45 -34 -56 -5 -11 -18 -33 -29 -50 -11 -16 -24 -39 -30 -50 -5 -11 -16 -29 -22 -40 -7 -10 -24 -37 -38 -60 -13 -22 -30 -49 -37 -60 -7 -11 -16 -27 -20 -35 -4 -8 -60 -104 -125 -213 -65 -109 -118 -200 -118 -202 0 -2 -13 -23 -29 -47 -16 -24 -39 -62 -51 -86 -22 -41 -40 -62 -40 -45 0 5 4 13 9 19 5 5 26 50 46 99 21 50 48 113 60 140 13 28 33 75 45 105 13 30 33 78 45 105 13 28 33 75 45 105 13 30 33 78 45 105 13 28 33 75 45 105 13 30 33 78 45 105 13 28 33 75 45 105 13 30 33 78 45 105 13 28 33 75 45 105 13 30 33 78 45 105 13 28 33 75 45 105 13 30 35 82 50 115 15 33 343 800 730 1705 387 905 713 1668 725 1695 13 28 33 75 45 105 13 30 33 78 45 105 13 28 33 75 45 105 13 30 33 78 45 105 13 28 33 75 45 105 13 30 33 78 45 105 13 28 33 75 45 105 13 30 33 78 45 105 13 28 33 75 45 105 13 30 33 78 45 105 13 28 33 75 45 105 12 30 25 62 30 71 4 8 34 76 65 149 31 73 61 141 65 149 5 9 18 41 30 71 12 30 32 78 45 105 12 28 32 75 45 105 12 30 32 78 45 105 12 28 38 88 58 135 l36 85 93 7 c145 11 208 30 298 91 45 30 140 124 140 138 0 4 6 14 13 21 15 16 35 57 58 123 16 45 18 90 19 432 0 327 -2 389 -16 425 -28 74 -58 138 -66 138 -5 0 -8 6 -8 13 0 15 -123 137 -138 137 -7 0 -12 3 -12 8 0 8 -64 38 -138 66 -39 15 -501 16 -5222 16 -4721 0 -5183 -1 -5222 -16 -74 -28 -138 -58 -138 -66 0 -5 -6 -8 -12 -8 -16 0 -138 -123 -138 -138 0 -7 -3 -12 -8 -12 -8 0 -38 -64 -66 -138 -14 -36 -16 -98 -16 -425 1 -342 3 -387 19 -432 23 -66 43 -107 58 -123 7 -7 13 -17 13 -21 0 -14 95 -108 140 -138 90 -61 153 -80 298 -91 l93 -7 36 -85 c20 -47 46 -107 58 -135 13 -27 33 -75 45 -105 13 -30 33 -77 45 -105 13 -27 33 -75 45 -105 13 -30 33 -77 45 -105 13 -27 33 -75 45 -105 13 -30 33 -77 45 -105 13 -27 33 -75 45 -105 13 -30 33 -77 45 -105 13 -27 33 -75 45 -105 12 -30 25 -62 30 -70 4 -9 436 -1017 960 -2240 524 -1224 962 -2247 975 -2275 12 -27 32 -75 45 -105 12 -30 32 -77 45 -105 12 -27 32 -75 45 -105 12 -30 32 -77 45 -105 12 -27 32 -75 45 -105 12 -30 32 -77 45 -105 12 -27 32 -75 45 -105 12 -30 32 -77 45 -105 12 -27 32 -75 45 -105 12 -30 32 -77 45 -105 12 -27 39 -90 60 -140 20 -49 41 -94 46 -99 5 -6 9 -14 9 -19 0 -17 -18 4 -40 45 -12 24 -35 62 -51 86 -16 24 -29 45 -29 47 0 2 -53 93 -118 202 -65 109 -121 205 -125 213 -4 8 -13 24 -20 35 -7 11 -24 38 -37 60 -14 23 -31 50 -38 60 -6 11 -17 29 -22 40 -6 11 -19 34 -30 50 -11 17 -24 39 -29 50 -5 11 -20 36 -34 56 -14 21 -28 46 -32 58 -3 12 -11 21 -16 21 -5 0 -9 4 -9 9 0 9 -69 131 -80 141 -3 3 -14 23 -25 45 -11 22 -22 42 -26 45 -3 3 -21 32 -40 65 -19 33 -39 69 -46 80 -7 11 -15 27 -19 35 -4 8 -13 22 -19 30 -7 8 -27 42 -45 75 -18 33 -38 67 -45 75 -6 8 -15 22 -19 30 -3 8 -20 38 -36 65 -17 28 -38 65 -47 83 -9 17 -20 32 -25 32 -4 0 -8 4 -8 9 0 5 -27 55 -60 111 -33 56 -60 106 -60 111 0 5 -4 9 -8 9 -5 0 -16 15 -25 33 -9 17 -30 55 -47 82 -16 28 -34 59 -40 70 -6 11 -19 34 -30 50 -11 17 -24 39 -29 50 -5 11 -20 36 -33 55 -13 19 -27 42 -31 50 -4 8 -13 24 -20 35 -7 11 -27 47 -46 80 -19 33 -37 62 -40 65 -3 3 -15 23 -26 45 -11 22 -22 42 -26 45 -3 3 -21 32 -40 65 -19 33 -39 69 -46 80 -7 11 -16 27 -20 35 -4 8 -18 31 -31 50 -13 19 -28 44 -33 55 -5 11 -18 34 -29 50 -11 17 -24 39 -30 50 -6 11 -24 43 -40 70 -17 28 -38 65 -47 83 -9 17 -20 32 -25 32 -4 0 -8 4 -8 9 0 5 -27 55 -60 111 -33 56 -60 106 -60 111 0 5 -4 9 -8 9 -5 0 -16 15 -24 34 -9 18 -78 136 -152 261 -75 125 -136 229 -136 232 0 3 -13 24 -29 48 -16 24 -32 53 -36 64 -3 12 -11 21 -16 21 -5 0 -9 4 -9 10 0 5 -67 122 -150 261 -82 138 -150 253 -150 256 0 3 -13 24 -28 47 -15 22 -31 48 -35 56 -4 8 -21 38 -37 65 -17 28 -38 65 -47 83 -9 17 -20 32 -25 32 -4 0 -8 4 -8 10 0 7 -184 325 -220 380 -6 8 -15 24 -20 35 -6 11 -19 34 -30 50 -11 17 -24 39 -29 50 -5 11 -20 36 -34 56 -14 21 -28 46 -32 58 -3 12 -11 21 -16 21 -5 0 -9 4 -9 9 0 13 -73 135 -82 139 -5 2 -8 8 -8 13 0 5 -34 66 -75 135 -41 69 -75 128 -75 131 0 4 -6 14 -14 22 -7 9 -28 43 -46 76 -18 33 -38 67 -45 75 -6 8 -15 22 -19 30 -3 8 -20 38 -36 65 -17 28 -38 65 -47 83 -9 17 -20 32 -25 32 -4 0 -8 4 -8 10 0 7 -184 325 -220 380 -6 8 -15 24 -20 35 -6 11 -19 34 -30 50 -11 17 -24 39 -29 50 -5 11 -20 36 -33 55 -13 19 -27 42 -31 50 -4 8 -21 38 -37 65 -17 28 -38 65 -47 83 -9 17 -20 32 -25 32 -4 0 -8 5 -8 10 0 15 -119 212 -139 230 -72 68 -122 80 -325 80 l-166 0 0 414 c0 476 -1 483 -79 564 -64 66 -104 82 -204 81 -61 0 -91 -5 -118 -20z m12381 -779 l0 -260 -5060 0 -5060 0 0 260 0 260 5060 0 5060 0 0 -260z m-7309 -857 c11 -27 35 -79 53 -118 38 -79 81 -172 121 -260 15 -33 42 -91 60 -130 42 -91 86 -185 120 -260 15 -33 42 -91 60 -130 43 -93 87 -186 120 -260 15 -33 33 -72 40 -87 l13 -28 -1078 0 -1078 0 -12 33 c-7 17 -23 55 -35 82 -13 28 -33 75 -45 105 -13 30 -33 78 -45 105 -13 28 -33 75 -45 105 -13 30 -33 78 -46 106 -12 27 -32 75 -44 105 -11 30 -29 72 -39 94 -10 22 -31 69 -45 105 -15 36 -35 83 -45 105 -11 22 -31 69 -45 105 -15 36 -33 79 -41 95 -20 44 -56 127 -66 153 l-9 22 1056 0 1055 0 20 -47z m3899 23 c-5 -14 -13 -33 -19 -43 -5 -10 -23 -47 -39 -83 -16 -36 -39 -85 -50 -110 -11 -25 -44 -94 -72 -155 -28 -60 -61 -130 -72 -155 -32 -70 -77 -169 -113 -245 -18 -38 -45 -97 -60 -130 -34 -75 -78 -169 -120 -260 -18 -38 -45 -97 -60 -130 -34 -75 -78 -169 -120 -260 -18 -38 -45 -97 -60 -130 -34 -75 -78 -169 -120 -260 -18 -38 -45 -97 -60 -130 -35 -77 -78 -171 -120 -260 -32 -68 -87 -188 -125 -270 -10 -22 -39 -85 -65 -140 -26 -55 -55 -118 -65 -140 -36 -80 -74 -162 -117 -255 -25 -52 -53 -113 -63 -135 -10 -22 -29 -65 -43 -95 -14 -30 -37 -81 -52 -112 -14 -32 -29 -58 -34 -58 -7 0 -29 41 -78 150 -48 105 -78 170 -120 260 -25 52 -53 113 -63 135 -34 76 -73 160 -115 250 -46 99 -87 189 -115 250 -10 22 -39 85 -65 140 -26 55 -55 118 -65 140 -26 58 -67 146 -118 255 -24 52 -52 113 -62 135 -25 55 -65 143 -115 250 -42 90 -81 174 -115 250 -10 22 -38 83 -63 135 -47 100 -87 186 -132 285 -15 33 -42 92 -60 130 -42 91 -86 185 -120 260 -15 33 -42 92 -60 130 -43 93 -87 186 -120 260 -15 33 -34 74 -42 90 -8 17 -19 40 -24 53 l-9 22 1660 0 1660 0 -10 -24z m2721 2 c-10 -26 -46 -109 -66 -153 -8 -16 -26 -59 -41 -95 -14 -36 -35 -83 -45 -105 -10 -22 -28 -64 -39 -94 -12 -30 -32 -78 -44 -105 -13 -28 -33 -76 -46 -106 -12 -30 -32 -77 -45 -105 -12 -27 -32 -75 -45 -105 -12 -30 -32 -77 -45 -105 -12 -27 -32 -75 -45 -105 -12 -30 -32 -77 -45 -105 -12 -27 -28 -65 -35 -82 l-12 -33 -1079 0 -1080 0 14 28 c8 15 27 54 42 87 40 87 83 180 120 260 18 39 45 97 60 130 34 75 78 169 120 260 18 39 45 97 60 130 40 88 83 181 121 260 18 39 42 91 53 118 l20 47 1055 0 1056 0 -9 -22z m-5766 -1878 c8 -14 29 -59 48 -100 19 -41 49 -106 67 -145 18 -38 44 -95 57 -125 14 -30 40 -86 58 -125 36 -76 83 -179 122 -265 14 -30 40 -86 58 -125 36 -76 83 -179 122 -265 14 -30 40 -86 58 -125 36 -76 83 -179 122 -265 14 -30 40 -86 58 -125 18 -38 47 -101 65 -140 74 -161 85 -182 109 -215 32 -46 123 -140 134 -140 5 0 15 -6 22 -14 8 -8 49 -28 92 -46 73 -31 85 -33 200 -33 125 -1 131 1 250 54 43 19 58 29 125 88 39 34 119 147 136 192 9 22 28 64 117 254 18 39 44 95 58 125 39 86 86 189 122 265 18 39 44 95 58 125 39 86 86 189 122 265 18 39 44 95 58 125 39 86 86 189 122 265 18 39 44 95 58 125 13 30 39 87 57 125 18 39 48 104 67 145 19 41 40 86 48 100 l14 25 1080 3 c914 2 1081 0 1081 -12 0 -12 -19 -60 -69 -171 -10 -22 -28 -65 -41 -95 -12 -30 -32 -77 -45 -105 -12 -27 -32 -75 -45 -105 -12 -30 -32 -77 -45 -105 -12 -27 -32 -75 -45 -105 -12 -30 -32 -77 -45 -105 -12 -27 -32 -75 -45 -105 -12 -30 -32 -77 -45 -105 -12 -27 -39 -90 -60 -140 -20 -49 -41 -94 -46 -100 -5 -5 -9 -15 -9 -21 0 -7 -14 -43 -30 -81 -17 -37 -37 -81 -44 -98 -7 -16 -19 -46 -28 -65 -8 -19 -20 -46 -26 -60 -10 -24 -39 -91 -66 -155 -7 -16 -18 -41 -24 -55 -10 -24 -39 -91 -66 -155 -7 -16 -18 -41 -24 -55 -10 -24 -39 -91 -66 -155 -7 -16 -18 -41 -24 -55 -10 -24 -39 -91 -66 -155 -7 -16 -18 -41 -24 -55 -10 -24 -39 -91 -66 -155 -7 -16 -18 -41 -24 -55 -10 -24 -39 -91 -66 -155 -7 -16 -18 -41 -24 -55 -10 -24 -39 -91 -66 -155 -7 -16 -18 -41 -24 -55 -10 -24 -39 -91 -66 -155 -7 -16 -18 -41 -24 -55 -10 -24 -39 -91 -66 -155 -7 -16 -18 -41 -24 -55 -10 -24 -39 -91 -66 -155 -7 -16 -18 -41 -24 -55 -10 -24 -39 -91 -66 -155 -7 -16 -18 -41 -24 -55 -10 -24 -39 -91 -66 -155 -7 -16 -18 -41 -24 -55 -10 -24 -39 -91 -66 -155 -7 -16 -18 -41 -24 -55 -10 -24 -39 -91 -66 -155 -7 -16 -18 -41 -24 -55 -10 -24 -39 -91 -66 -155 -7 -16 -18 -41 -24 -55 -5 -14 -20 -47 -32 -75 -35 -80 -47 -108 -58 -135 -10 -24 -36 -85 -68 -157 -8 -18 -21 -49 -29 -68 -19 -45 -41 -95 -60 -140 -9 -19 -22 -51 -30 -70 -19 -45 -41 -95 -60 -140 -9 -19 -22 -51 -30 -70 -21 -48 -42 -99 -59 -137 -17 -38 -53 -121 -68 -158 -6 -14 -17 -38 -24 -55 -27 -64 -56 -131 -66 -155 -6 -14 -17 -38 -24 -55 -27 -64 -56 -131 -66 -155 -6 -14 -17 -38 -24 -55 -27 -64 -56 -131 -66 -155 -6 -14 -17 -38 -24 -55 -27 -64 -56 -131 -66 -155 -6 -14 -17 -38 -24 -55 -27 -64 -56 -131 -66 -155 -6 -14 -17 -38 -24 -55 -27 -64 -56 -131 -66 -155 -6 -14 -17 -38 -24 -55 -27 -64 -56 -131 -66 -155 -6 -14 -17 -38 -24 -55 -27 -64 -56 -131 -66 -155 -6 -14 -17 -38 -24 -55 -27 -64 -56 -131 -66 -155 -6 -14 -17 -38 -24 -55 -27 -64 -56 -131 -66 -155 -6 -14 -17 -38 -24 -55 -43 -101 -59 -137 -89 -210 -42 -99 -49 -104 -71 -48 -8 21 -20 49 -26 63 -23 53 -75 173 -90 210 -6 14 -17 39 -24 55 -27 64 -56 131 -66 155 -6 14 -17 39 -24 55 -27 64 -56 131 -66 155 -6 14 -17 39 -24 55 -27 64 -56 131 -66 155 -6 14 -17 39 -24 55 -27 64 -56 131 -66 155 -6 14 -17 39 -24 55 -27 64 -56 131 -66 155 -6 14 -17 39 -24 55 -27 64 -56 131 -66 155 -6 14 -17 39 -24 55 -27 64 -56 131 -66 155 -6 14 -17 39 -24 55 -27 64 -56 131 -66 155 -6 14 -17 39 -24 55 -27 64 -56 131 -66 155 -6 14 -17 39 -24 55 -27 64 -56 131 -66 155 -6 14 -17 39 -24 55 -30 69 -56 131 -64 150 -5 11 -22 50 -39 88 -17 37 -31 70 -31 73 0 6 -7 23 -53 124 -14 30 -35 80 -47 110 -13 30 -33 78 -45 105 -13 28 -33 75 -45 105 -13 30 -33 78 -45 105 -13 28 -33 75 -45 105 -13 30 -33 78 -45 105 -13 28 -33 75 -45 105 -13 30 -33 78 -45 105 -13 28 -33 75 -45 105 -13 30 -33 78 -45 105 -13 28 -33 75 -45 105 -13 30 -33 78 -45 105 -13 28 -33 75 -45 105 -13 30 -33 78 -45 105 -13 28 -33 75 -45 105 -13 30 -33 78 -45 105 -13 28 -33 75 -45 105 -13 30 -33 78 -45 105 -13 28 -33 75 -45 105 -13 30 -33 78 -45 105 -13 28 -33 75 -45 105 -13 30 -33 78 -45 105 -13 28 -33 75 -45 105 -13 30 -33 78 -45 105 -13 28 -33 75 -45 105 -13 30 -33 78 -45 105 -13 28 -33 75 -45 105 -13 30 -33 78 -45 105 -13 28 -33 75 -45 105 -13 30 -33 78 -45 105 -13 28 -33 75 -45 105 -13 30 -33 78 -45 105 -13 28 -33 75 -45 105 -13 30 -33 78 -45 105 -13 28 -33 75 -45 105 -13 30 -33 78 -45 105 -13 28 -33 75 -45 105 -13 30 -33 78 -45 105 -13 28 -33 75 -45 105 -13 30 -33 78 -45 105 -13 28 -33 75 -45 105 -13 30 -33 78 -45 105 -13 28 -33 75 -45 105 -13 30 -33 78 -45 105 -13 28 -33 75 -45 105 -13 30 -33 78 -45 105 -13 28 -33 75 -45 105 -13 30 -33 78 -45 105 -13 28 -33 75 -45 105 -13 30 -31 73 -41 95 -50 111 -69 159 -69 171 0 12 167 14 1081 12 l1080 -3 14 -25z m8096 -6907 c161 -51 262 -219 202 -335 -25 -47 -98 -115 -152 -141 l-46 -22 -1500 -5 c-1204 -4 -1508 -8 -1539 -19 -22 -7 -62 -36 -91 -65 -96 -96 -111 -230 -39 -347 45 -72 118 -112 229 -125 136 -16 225 -118 225 -259 0 -52 -5 -76 -26 -113 -35 -64 -71 -100 -121 -123 -41 -18 -85 -19 -1617 -19 -867 0 -1576 3 -1576 8 0 4 16 33 35 65 19 32 35 62 35 68 0 5 4 9 8 9 5 0 16 15 25 33 9 17 30 55 47 82 16 28 33 57 36 65 4 8 13 22 19 30 7 8 29 44 48 80 l36 65 918 5 c863 5 921 6 971 24 28 10 52 22 52 27 0 5 5 9 11 9 15 0 68 59 90 102 28 54 27 184 -2 240 -25 49 -73 100 -114 120 -36 19 -118 37 -163 37 -124 0 -236 80 -279 201 -33 92 10 186 118 258 96 64 -33 60 2135 61 1827 1 1976 0 2025 -16z m269 -1120 c169 -172 248 -290 355 -528 55 -123 94 -271 121 -458 32 -222 3 -479 -83 -737 -23 -67 -103 -241 -136 -295 -43 -71 -112 -171 -119 -173 -4 -2 -8 -8 -8 -13 0 -24 -266 -289 -290 -289 -4 0 -10 -4 -12 -8 -3 -10 -167 -121 -210 -143 -15 -8 -48 -24 -75 -37 -26 -13 -56 -28 -65 -33 -34 -18 -184 -68 -273 -92 -239 -62 -532 -64 -773 -5 -23 6 -41 14 -40 18 2 4 37 44 78 87 85 91 103 112 145 168 17 22 33 42 38 43 4 2 7 10 7 17 0 7 4 15 8 17 19 7 114 165 180 299 69 141 78 161 119 284 123 365 147 781 67 1165 -24 116 -81 308 -96 324 -4 6 -8 16 -8 23 0 16 -97 233 -109 243 -3 3 -17 27 -31 53 -36 70 -46 87 -59 100 -6 6 -11 14 -11 18 0 4 226 10 503 12 395 4 517 8 572 20 39 8 79 15 90 16 12 1 54 -35 115 -96z"/>
 <path d="M3617 5581 c-129 -64 -157 -128 -157 -357 l0 -154 -170 0 c-185 0 -209 -6 -276 -68 -62 -57 -78 -98 -79 -202 0 -93 1 -96 38 -151 28 -43 51 -64 96 -88 l59 -31 166 0 166 0 0 -146 c0 -166 11 -222 54 -280 50 -67 142 -114 222 -114 40 0 147 35 152 50 2 6 8 10 13 10 20 0 70 66 89 118 17 44 20 78 20 207 l0 155 161 0 c141 0 166 3 210 21 27 12 49 25 49 30 0 5 6 9 13 9 17 1 64 70 82 121 25 70 14 187 -22 230 -7 8 -13 19 -13 23 0 13 -65 67 -104 87 -35 16 -62 19 -208 19 l-168 0 0 155 c0 131 -3 162 -21 209 -56 150 -229 218 -372 147z"/>
 <path d="M660 2925 c-19 -7 -45 -14 -57 -14 -44 -2 -197 -78 -273 -136 -83 -64 -180 -164 -180 -186 0 -5 -4 -9 -8 -9 -15 0 -100 -182 -121 -261 -27 -97 -29 -289 -5 -370 33 -112 55 -161 110 -245 37 -55 148 -174 164 -174 6 0 10 -4 10 -9 0 -21 182 -120 270 -148 136 -42 153 -43 1302 -43 l1097 0 -16 -42 c-12 -33 -16 -82 -17 -213 0 -148 3 -179 21 -237 26 -80 90 -216 113 -238 3 -3 17 -21 32 -41 55 -74 197 -199 226 -199 4 0 13 -5 20 -12 12 -12 37 -22 152 -61 l65 -22 1765 0 1765 0 70 23 c81 26 205 83 205 95 0 4 5 7 11 7 37 0 229 192 229 229 0 6 3 11 8 11 12 0 59 98 94 200 20 57 22 85 22 230 0 146 -3 174 -23 240 -25 79 -26 80 -61 150 -37 72 -75 124 -142 192 -101 103 -184 157 -308 198 -106 36 -205 40 -927 40 -590 0 -703 2 -703 14 0 7 7 33 15 56 23 64 20 294 -4 385 -41 153 -144 308 -272 409 -110 87 -228 145 -362 177 -75 18 -153 19 -2165 18 -1725 0 -2093 -3 -2122 -14z m4204 -554 c104 -42 196 -150 196 -231 0 -36 -52 -138 -90 -177 -52 -53 -126 -84 -202 -84 -141 -1 -244 -64 -287 -176 -51 -134 5 -285 128 -345 l46 -23 1185 -5 c1151 -5 1186 -6 1215 -24 126 -82 173 -244 106 -361 -34 -58 -50 -74 -113 -109 l-47 -26 -1670 0 -1670 0 -40 21 c-89 46 -141 135 -141 239 0 145 78 231 233 256 43 7 97 22 120 34 80 41 132 121 144 219 14 118 -77 254 -192 286 -16 5 -703 11 -1525 14 l-1495 6 -49 23 c-27 13 -60 35 -75 48 -14 13 -29 24 -33 24 -11 0 -68 122 -68 147 0 12 14 52 31 88 39 82 99 137 182 164 61 20 85 20 2057 18 l1995 -2 59 -24z"/>
 <path d="M10600 1603 c-88 -31 -145 -76 -181 -145 -17 -32 -19 -59 -19 -208 l0 -170 -154 0 c-133 0 -162 -3 -210 -21 -31 -12 -56 -26 -56 -30 0 -5 -5 -9 -11 -9 -6 0 -25 -16 -42 -36 -113 -127 -81 -326 67 -422 40 -26 46 -27 224 -30 l182 -4 0 -170 c0 -190 9 -225 74 -287 57 -54 103 -71 189 -71 93 0 149 22 205 79 60 62 72 111 72 293 l0 156 179 4 178 3 52 35 c149 101 169 307 42 429 -67 64 -129 81 -301 81 l-148 0 -4 173 c-5 194 -8 207 -84 282 -30 30 -60 49 -96 60 -50 15 -128 19 -158 8z"/>
 </g>

</svg>