<!DOCTYPE svg PUBLIC "-//W3C//DTD SVG 20010904//EN" "http://www.w3.org/TR/2001/REC-SVG-20010904/DTD/svg10.dtd">
<svg version="1.0" xmlns="http://www.w3.org/2000/svg" width="1600px" height="1494px" viewBox="0 0 16000 14940" preserveAspectRatio="xMidYMid meet">
<g id="layer101" fill="#000000" stroke="none">
 <path d="M145 14918 c-56 -29 -93 -65 -121 -120 l-24 -47 0 -614 c0 -568 1 -615 18 -647 31 -60 261 -402 275 -408 4 -2 7 -8 7 -13 0 -11 42 -72 53 -77 4 -2 7 -8 7 -13 0 -11 42 -72 53 -77 4 -2 7 -8 7 -13 0 -11 42 -72 53 -77 4 -2 7 -10 7 -17 0 -7 3 -15 8 -17 10 -5 52 -66 52 -77 0 -5 3 -11 8 -13 10 -5 52 -66 52 -77 0 -5 3 -11 8 -13 10 -5 52 -66 52 -77 0 -5 3 -11 8 -13 10 -4 17 -15 298 -435 136 -203 250 -369 255 -371 5 -2 9 -8 9 -13 0 -11 42 -72 53 -77 4 -2 7 -8 7 -13 0 -11 42 -72 53 -77 4 -2 7 -8 7 -13 0 -11 42 -72 53 -77 4 -2 7 -8 7 -14 0 -6 14 -27 30 -48 17 -21 30 -42 30 -48 0 -6 3 -12 8 -14 10 -5 52 -66 52 -77 0 -5 3 -11 8 -13 10 -5 52 -66 52 -77 0 -5 3 -11 8 -13 10 -5 52 -66 52 -77 0 -5 4 -11 9 -13 5 -1 116 -163 246 -358 131 -195 241 -356 246 -358 5 -2 9 -8 9 -13 0 -11 42 -72 53 -77 4 -2 7 -8 7 -13 0 -11 42 -72 53 -77 4 -2 7 -8 7 -13 0 -11 42 -72 53 -77 4 -2 7 -8 7 -14 0 -6 13 -27 30 -48 17 -21 30 -42 30 -48 0 -6 3 -12 8 -14 10 -5 52 -66 52 -77 0 -5 3 -11 7 -13 11 -5 53 -66 53 -77 0 -5 3 -11 8 -13 10 -5 52 -66 52 -77 0 -5 4 -11 9 -13 5 -1 115 -163 246 -358 130 -195 241 -356 246 -358 5 -2 9 -8 9 -13 0 -11 42 -72 53 -77 4 -2 7 -8 7 -13 0 -11 42 -72 53 -77 4 -2 7 -8 7 -13 0 -11 42 -72 53 -77 4 -2 7 -8 7 -14 0 -6 14 -27 30 -48 17 -21 30 -42 30 -48 0 -6 3 -12 8 -14 10 -5 52 -66 52 -77 0 -5 3 -11 8 -13 10 -5 52 -66 52 -77 0 -5 3 -11 8 -13 10 -5 52 -66 52 -77 0 -5 4 -11 9 -13 5 -1 119 -168 255 -371 281 -420 288 -431 299 -435 4 -2 7 -8 7 -13 0 -9 88 -139 119 -177 11 -12 46 -36 80 -52 104 -52 225 -36 308 41 43 40 173 179 173 186 0 2 10 14 23 26 13 12 63 67 112 122 48 55 99 110 112 122 12 12 23 25 23 28 0 3 10 16 23 28 13 12 63 67 112 122 48 55 99 110 112 122 12 12 23 25 23 28 0 3 11 16 23 28 13 12 62 65 109 118 67 75 87 93 96 83 7 -7 12 -15 12 -18 0 -3 46 -83 103 -178 57 -95 106 -180 110 -188 9 -18 22 -39 60 -97 15 -24 27 -45 27 -49 0 -3 13 -25 28 -48 15 -22 31 -48 35 -56 4 -8 21 -37 37 -65 17 -27 38 -65 47 -82 9 -18 20 -33 25 -33 4 0 8 -4 8 -10 0 -5 46 -87 103 -182 57 -95 106 -180 110 -188 9 -18 22 -39 60 -97 15 -24 27 -45 27 -49 0 -3 13 -25 28 -48 15 -22 31 -48 35 -56 4 -8 21 -37 37 -65 17 -27 38 -65 47 -82 9 -18 20 -33 25 -33 4 0 8 -4 8 -10 0 -5 46 -87 103 -182 57 -95 106 -180 110 -188 9 -18 22 -39 60 -97 15 -24 27 -45 27 -49 0 -3 13 -25 28 -48 15 -22 31 -48 35 -56 4 -8 21 -37 37 -65 17 -27 38 -65 47 -83 9 -17 20 -32 25 -32 4 0 8 -4 8 -9 0 -5 27 -55 60 -111 33 -56 60 -106 60 -111 0 -5 4 -9 9 -9 5 0 13 -9 16 -21 4 -11 19 -40 33 -62 44 -69 52 -81 62 -102 6 -11 19 -33 30 -50 11 -16 24 -39 29 -50 5 -11 20 -36 33 -55 13 -19 27 -42 31 -50 4 -8 21 -37 37 -65 17 -27 38 -65 47 -83 9 -17 20 -32 25 -32 4 0 8 -4 8 -9 0 -5 27 -55 60 -111 33 -56 60 -106 60 -111 0 -5 4 -9 9 -9 5 0 13 -9 16 -21 4 -11 19 -40 33 -62 44 -69 52 -81 62 -102 6 -11 19 -33 30 -50 11 -16 24 -39 29 -50 5 -11 20 -36 33 -55 13 -19 27 -42 31 -50 4 -8 21 -37 37 -65 17 -27 38 -65 47 -82 9 -18 20 -33 25 -33 4 0 8 -4 8 -9 0 -5 27 -55 60 -111 33 -56 60 -106 60 -111 0 -5 4 -9 9 -9 5 0 13 -9 16 -21 4 -11 19 -40 33 -62 44 -69 52 -81 62 -102 6 -11 19 -33 30 -50 11 -16 24 -39 29 -50 5 -11 20 -36 33 -55 13 -19 27 -42 31 -50 4 -8 21 -37 37 -65 17 -27 38 -65 47 -82 9 -18 20 -33 25 -33 4 0 8 -4 8 -9 0 -5 27 -55 60 -111 33 -56 60 -106 60 -111 0 -5 4 -9 9 -9 5 0 13 -9 16 -21 4 -11 19 -40 33 -62 44 -69 52 -81 62 -102 6 -11 19 -33 30 -50 11 -16 24 -39 29 -50 5 -11 20 -36 34 -56 14 -21 28 -46 32 -58 3 -12 11 -21 16 -21 5 0 9 -4 9 -9 0 -9 69 -131 80 -141 3 -3 14 -23 25 -45 11 -22 22 -42 26 -45 3 -3 21 -32 40 -65 19 -33 39 -69 46 -80 7 -11 16 -27 20 -35 34 -69 132 -180 159 -180 6 0 25 -7 43 -16 38 -19 136 -15 194 8 42 16 117 85 138 126 8 15 40 71 72 125 31 54 57 100 57 102 0 2 27 49 60 105 33 56 60 103 60 105 0 2 27 49 60 105 33 56 60 103 60 105 0 2 27 49 60 105 33 56 60 103 60 105 0 2 27 49 60 105 33 56 60 103 60 105 0 2 27 49 60 105 33 56 60 103 60 105 0 2 27 49 60 105 33 56 60 103 60 105 0 2 27 49 60 105 33 56 60 103 60 105 0 2 27 49 60 105 33 56 60 103 60 105 0 2 22 41 49 87 68 115 109 187 128 226 l17 32 184 0 184 0 -7 -22 c-4 -13 -14 -70 -23 -127 -25 -164 -2 -315 72 -471 31 -67 65 -122 79 -128 4 -2 7 -8 7 -13 0 -5 28 -38 63 -73 69 -71 168 -142 237 -170 170 -69 62 -66 1930 -66 1719 0 1777 2 1870 38 94 37 123 51 185 91 91 58 235 204 235 239 0 6 4 12 9 14 15 5 72 137 92 212 27 102 27 335 0 426 -37 122 -102 260 -123 260 -5 0 -8 5 -8 10 0 6 -15 27 -32 46 -18 20 -36 42 -41 49 -13 24 -163 132 -221 159 -31 15 -84 35 -118 46 -60 19 -96 20 -836 20 l-772 0 6 28 c3 15 12 49 20 76 31 111 14 313 -39 446 -33 83 -102 200 -118 200 -5 0 -9 5 -9 10 0 10 -51 62 -101 105 -79 67 -186 127 -285 161 -137 47 -135 47 -836 51 -368 2 -668 7 -668 11 0 4 27 54 60 111 33 57 60 105 60 107 0 1 27 48 60 104 33 56 60 103 60 105 0 2 27 49 60 105 33 56 60 103 60 105 0 2 27 49 60 105 33 56 60 103 60 105 0 2 27 49 60 105 33 56 60 103 60 105 0 2 27 49 60 105 33 56 60 103 60 105 0 2 27 49 60 105 33 56 60 103 60 105 0 2 27 49 60 105 33 56 60 103 60 105 0 2 27 49 60 105 33 56 60 103 60 105 0 2 27 49 60 105 33 56 60 103 60 105 0 2 27 49 60 105 33 56 60 103 60 105 0 2 27 49 60 105 33 56 60 103 60 105 0 2 27 49 60 105 33 56 60 103 60 105 0 2 27 49 60 105 33 56 60 103 60 105 0 2 27 49 60 105 33 56 60 103 60 105 0 2 27 49 60 105 33 56 60 103 60 105 0 2 27 49 60 105 33 56 60 103 60 105 0 2 27 49 60 105 33 56 60 103 60 105 0 2 27 49 60 105 33 56 60 103 60 105 0 2 27 49 60 105 33 56 60 103 60 105 0 2 27 49 60 105 33 56 60 103 60 105 0 2 27 49 60 105 33 56 60 103 60 105 0 2 27 49 60 105 33 56 60 103 60 105 0 2 27 49 60 105 33 56 60 103 60 105 0 2 27 49 60 105 33 56 60 103 60 105 0 2 27 49 60 105 33 56 60 103 60 105 0 2 27 49 60 105 33 56 60 103 60 105 0 2 27 49 60 105 33 56 60 103 60 105 0 2 27 49 60 105 33 56 60 103 60 105 0 2 27 49 60 105 33 56 60 103 60 105 0 2 27 49 60 105 33 56 60 103 60 105 0 2 27 49 60 105 33 56 60 103 60 105 0 2 27 49 60 105 33 56 60 103 60 105 0 2 27 49 60 105 33 56 60 104 60 106 0 2 12 23 26 45 14 23 41 72 60 109 l34 68 0 612 0 611 -24 47 c-29 56 -65 92 -123 121 l-42 21 -7813 0 -7813 -1 -40 -21z m15315 -874 l0 -355 -32 -57 c-17 -31 -51 -90 -75 -130 -24 -41 -43 -75 -43 -77 0 -2 -27 -49 -60 -105 -33 -56 -60 -103 -60 -105 0 -2 -27 -49 -60 -105 -33 -56 -60 -103 -60 -105 0 -2 -27 -49 -60 -105 -33 -56 -60 -103 -60 -105 0 -2 -27 -49 -60 -105 -33 -56 -60 -103 -60 -105 0 -2 -27 -49 -60 -105 -33 -56 -60 -103 -60 -105 0 -2 -27 -49 -60 -105 -33 -56 -60 -103 -60 -105 0 -2 -27 -49 -60 -105 -33 -56 -60 -103 -60 -105 0 -2 -27 -49 -60 -105 -33 -56 -60 -103 -60 -105 0 -2 -27 -49 -60 -105 -33 -56 -60 -103 -60 -105 0 -2 -27 -49 -60 -105 -33 -56 -60 -103 -60 -105 0 -2 -27 -49 -60 -105 -33 -56 -60 -103 -60 -105 0 -2 -27 -49 -60 -105 -33 -56 -60 -103 -60 -105 0 -2 -27 -49 -60 -105 -33 -56 -60 -103 -60 -105 0 -2 -27 -49 -60 -105 -33 -56 -60 -103 -60 -105 0 -2 -27 -49 -60 -105 -33 -56 -60 -103 -60 -105 0 -2 -27 -49 -60 -105 -33 -56 -60 -103 -60 -105 0 -2 -27 -49 -60 -105 -33 -56 -60 -103 -60 -105 0 -2 -27 -49 -60 -105 -33 -56 -60 -103 -60 -105 0 -2 -19 -36 -43 -77 -24 -40 -55 -93 -69 -118 -14 -25 -207 -364 -430 -755 -223 -390 -416 -728 -428 -750 -12 -22 -35 -62 -51 -90 -17 -27 -37 -63 -45 -80 -8 -16 -23 -43 -34 -60 -10 -16 -29 -50 -42 -75 -13 -25 -26 -47 -30 -50 -4 -3 -12 -17 -18 -30 -5 -14 -19 -38 -30 -55 -10 -16 -29 -50 -42 -75 -13 -25 -26 -47 -30 -50 -4 -3 -12 -17 -18 -30 -5 -14 -19 -38 -30 -55 -10 -16 -29 -50 -42 -75 -13 -25 -26 -47 -30 -50 -4 -3 -12 -17 -18 -30 -5 -14 -19 -38 -30 -55 -10 -16 -29 -50 -42 -75 -13 -25 -26 -47 -30 -50 -4 -3 -12 -17 -18 -30 -20 -46 -40 -77 -55 -90 -12 -10 -17 -6 -32 24 -9 20 -20 36 -25 36 -4 0 -8 4 -8 9 0 13 -73 135 -82 139 -5 2 -8 7 -8 12 0 12 -73 134 -82 138 -5 2 -8 7 -8 12 0 12 -73 134 -82 138 -5 2 -8 7 -8 12 0 12 -73 134 -82 138 -5 2 -8 7 -8 12 0 12 -73 134 -82 138 -5 2 -8 7 -8 12 0 9 -70 131 -80 140 -3 3 -14 22 -25 44 -29 57 -98 124 -151 146 -61 27 -157 27 -215 0 -61 -27 -90 -54 -148 -135 -28 -38 -55 -75 -61 -82 -5 -7 -10 -15 -10 -17 0 -3 -7 -14 -15 -23 -8 -10 -37 -49 -64 -88 -28 -38 -55 -75 -61 -82 -5 -7 -10 -15 -10 -17 0 -3 -7 -14 -15 -23 -8 -10 -37 -49 -64 -88 -28 -38 -55 -75 -61 -82 -5 -7 -10 -15 -10 -17 0 -3 -7 -14 -15 -23 -8 -10 -37 -49 -64 -88 -28 -38 -55 -75 -61 -82 -5 -7 -10 -15 -10 -17 0 -3 -7 -14 -15 -23 -8 -10 -37 -49 -64 -88 -28 -38 -55 -75 -61 -82 -5 -7 -10 -15 -10 -17 0 -3 -7 -14 -15 -23 -8 -10 -37 -49 -64 -88 -28 -38 -55 -75 -61 -82 -5 -7 -10 -15 -10 -17 0 -3 -7 -14 -15 -23 -8 -10 -37 -49 -64 -88 -28 -38 -55 -75 -61 -82 -5 -7 -10 -15 -10 -17 0 -3 -7 -14 -15 -23 -25 -31 -115 -157 -119 -168 -2 -5 -199 184 -437 421 -239 237 -452 442 -474 455 -34 21 -52 24 -130 24 -97 -1 -137 -16 -195 -75 -14 -14 -158 -245 -319 -515 -162 -269 -295 -491 -296 -493 -2 -2 -18 23 -36 55 -18 32 -35 60 -38 63 -4 3 -15 23 -26 45 -11 22 -22 42 -25 45 -11 10 -80 132 -80 141 0 5 -4 9 -9 9 -5 0 -13 9 -16 21 -4 12 -18 37 -32 58 -14 20 -29 45 -34 56 -5 11 -18 34 -29 50 -11 17 -24 39 -30 50 -10 21 -17 32 -60 100 -14 22 -29 47 -33 55 -4 8 -13 24 -20 35 -7 11 -27 47 -46 80 -19 33 -37 62 -40 65 -4 3 -15 23 -26 45 -11 22 -22 42 -25 45 -11 10 -80 132 -80 141 0 5 -4 9 -9 9 -5 0 -13 9 -16 21 -4 11 -19 40 -33 62 -44 69 -52 81 -62 102 -6 11 -19 34 -30 50 -11 17 -24 39 -29 50 -5 11 -20 36 -33 55 -13 19 -27 42 -31 50 -4 8 -13 24 -20 35 -7 11 -27 47 -46 80 -19 33 -37 62 -40 65 -4 3 -15 23 -26 45 -11 22 -22 42 -25 45 -11 10 -80 132 -80 141 0 5 -4 9 -9 9 -5 0 -13 9 -16 21 -4 12 -18 37 -32 58 -14 20 -29 45 -34 56 -5 11 -18 34 -29 50 -11 17 -24 39 -30 50 -10 21 -17 32 -60 100 -14 22 -29 47 -33 55 -4 8 -13 24 -20 35 -7 11 -27 47 -46 80 -19 33 -37 62 -40 65 -4 3 -15 23 -26 45 -11 22 -22 42 -25 45 -11 10 -80 132 -80 141 0 5 -4 9 -9 9 -5 0 -13 9 -16 21 -4 11 -19 40 -33 62 -44 69 -52 81 -62 102 -6 11 -19 34 -30 50 -11 17 -24 39 -29 50 -5 11 -20 36 -33 55 -13 19 -27 42 -31 50 -4 8 -13 24 -20 35 -7 11 -27 47 -46 80 -19 33 -37 62 -40 65 -3 3 -15 23 -26 45 -11 22 -22 42 -25 45 -8 7 -80 130 -80 136 0 3 -10 19 -22 37 -69 97 -131 130 -243 130 -96 0 -144 -22 -205 -90 -51 -58 -74 -128 -67 -204 4 -48 16 -78 69 -169 34 -61 71 -123 80 -138 10 -15 21 -34 25 -42 24 -47 78 -135 85 -138 4 -2 8 -8 8 -12 0 -5 36 -70 81 -145 90 -150 88 -132 19 -209 -19 -21 -46 -50 -60 -65 -14 -14 -59 -64 -100 -111 -81 -91 -128 -144 -175 -195 -16 -17 -48 -52 -69 -76 -22 -24 -58 -64 -80 -89 -23 -25 -81 -90 -131 -144 -49 -54 -94 -105 -98 -113 -8 -12 -12 -12 -28 6 -10 11 -19 23 -19 27 0 3 -13 23 -30 44 -16 21 -30 42 -30 48 0 6 -3 12 -7 14 -11 5 -53 66 -53 77 0 5 -3 11 -7 13 -11 5 -53 66 -53 77 0 5 -3 11 -7 13 -11 5 -53 66 -53 77 0 5 -4 11 -9 13 -5 2 -147 210 -316 463 -388 581 -428 639 -437 643 -5 2 -8 8 -8 13 0 11 -42 72 -52 77 -5 2 -8 8 -8 13 0 9 -37 67 -51 79 -3 3 -16 23 -29 45 -13 22 -27 42 -30 45 -3 3 -60 86 -126 185 -379 568 -618 920 -625 923 -5 2 -9 8 -9 13 0 11 -42 72 -52 77 -5 2 -8 8 -8 13 0 11 -42 72 -52 77 -5 2 -8 8 -8 13 0 11 -42 72 -52 77 -5 2 -8 8 -8 14 0 6 -13 27 -30 48 -16 21 -30 42 -30 48 0 6 -3 12 -8 14 -8 3 -28 33 -420 618 -134 201 -248 367 -253 368 -5 2 -9 8 -9 13 0 11 -42 72 -52 77 -5 2 -8 8 -8 13 0 11 -42 72 -52 77 -5 2 -8 8 -8 13 0 11 -42 72 -52 77 -5 2 -8 8 -8 14 0 6 -13 27 -30 48 -16 21 -30 42 -30 48 0 6 -3 12 -7 14 -11 5 -53 66 -53 77 0 5 -3 11 -8 13 -8 3 -20 21 -369 541 -290 433 -295 441 -305 445 -5 2 -8 165 -8 363 l0 359 7460 0 7460 0 0 -356z m-4795 -6841 c9 -16 24 -41 35 -58 11 -16 23 -37 27 -45 3 -8 18 -33 32 -55 38 -60 49 -78 57 -95 4 -8 19 -33 33 -55 38 -60 49 -78 57 -95 4 -8 19 -33 33 -55 38 -60 49 -78 57 -95 4 -8 19 -33 33 -55 38 -60 49 -78 57 -95 4 -8 19 -33 33 -55 35 -55 42 -66 74 -125 24 -45 26 -54 15 -75 -7 -13 -24 -45 -38 -72 -14 -26 -28 -50 -32 -53 -4 -3 -12 -17 -18 -30 -5 -14 -19 -38 -30 -55 -10 -16 -29 -50 -42 -75 -13 -25 -26 -47 -30 -50 -4 -3 -12 -17 -18 -30 -5 -14 -19 -38 -30 -55 -10 -16 -29 -50 -42 -75 -13 -25 -26 -47 -30 -50 -4 -3 -12 -17 -18 -30 -5 -14 -19 -38 -30 -55 -10 -16 -29 -50 -42 -75 -13 -25 -26 -47 -30 -50 -4 -3 -12 -17 -18 -30 -5 -14 -19 -38 -30 -55 -10 -16 -29 -50 -42 -75 -13 -25 -26 -47 -30 -50 -4 -3 -12 -17 -18 -30 -5 -14 -19 -38 -30 -55 -10 -16 -29 -50 -42 -75 -13 -25 -26 -47 -30 -50 -4 -3 -12 -17 -18 -30 -5 -14 -19 -38 -30 -55 -10 -16 -29 -50 -42 -75 -13 -25 -26 -47 -30 -50 -4 -3 -12 -17 -18 -30 -5 -14 -19 -38 -30 -55 -10 -16 -29 -50 -42 -75 -13 -25 -26 -47 -30 -50 -4 -3 -12 -17 -18 -30 -5 -14 -19 -38 -30 -55 -10 -16 -29 -50 -42 -75 -13 -25 -26 -47 -30 -50 -4 -3 -12 -17 -18 -30 -5 -14 -19 -38 -30 -55 -10 -16 -29 -50 -42 -75 -13 -25 -26 -47 -30 -50 -4 -3 -12 -17 -18 -30 -5 -14 -19 -38 -30 -55 -10 -16 -29 -50 -42 -75 -13 -25 -26 -47 -30 -50 -4 -3 -12 -17 -18 -30 -5 -14 -19 -38 -30 -55 -10 -16 -29 -50 -42 -75 -13 -25 -26 -47 -30 -50 -4 -3 -12 -17 -18 -30 -5 -14 -19 -38 -30 -55 -10 -16 -29 -50 -42 -75 -13 -25 -26 -47 -30 -50 -4 -3 -12 -17 -18 -30 -5 -14 -19 -38 -30 -55 -10 -16 -29 -50 -42 -75 -13 -25 -26 -47 -30 -50 -4 -3 -12 -17 -18 -30 -5 -14 -19 -38 -30 -55 -10 -16 -29 -50 -42 -75 -13 -25 -26 -47 -30 -50 -4 -3 -12 -17 -18 -30 -5 -14 -19 -38 -30 -55 -10 -16 -29 -50 -42 -75 -29 -56 -40 -65 -52 -40 -5 11 -13 20 -18 20 -4 0 -8 4 -8 10 0 5 -46 87 -103 182 -57 95 -106 180 -110 188 -9 18 -22 39 -60 97 -15 24 -27 45 -27 49 0 3 -13 25 -28 48 -15 22 -31 48 -35 56 -4 8 -21 38 -37 65 -17 28 -38 65 -47 83 -9 17 -20 32 -25 32 -4 0 -8 4 -8 10 0 5 -46 87 -103 182 -57 95 -106 180 -110 188 -9 18 -22 39 -60 97 -15 24 -27 45 -27 49 0 3 -13 25 -28 48 -15 22 -31 48 -35 56 -4 8 -21 38 -37 65 -17 28 -38 65 -47 83 -9 17 -20 32 -25 32 -4 0 -8 4 -8 10 0 5 -46 87 -103 182 -57 95 -106 180 -110 188 -9 18 -22 39 -60 97 -15 24 -27 45 -27 49 0 3 -13 25 -28 48 -15 22 -31 48 -35 56 -4 8 -21 38 -37 65 -17 28 -38 65 -47 83 -9 17 -20 32 -25 32 -4 0 -8 4 -8 9 0 5 -16 37 -37 71 l-36 62 29 55 c31 59 36 67 75 128 14 22 29 47 33 55 8 17 19 35 57 95 14 22 29 47 33 55 8 17 19 35 57 95 14 22 29 47 33 55 8 17 19 35 57 95 14 22 29 47 33 55 8 17 19 35 57 95 14 22 29 47 33 55 7 15 23 42 40 69 6 9 123 -101 445 -422 474 -473 454 -457 569 -457 60 0 142 18 142 31 0 5 6 9 14 9 18 0 72 60 127 141 23 35 47 69 52 74 4 6 35 48 68 95 33 47 67 94 75 105 8 11 42 58 75 105 33 47 67 94 75 105 8 11 42 58 75 105 33 47 67 94 75 105 8 11 42 58 75 105 33 47 67 94 75 105 8 11 40 56 71 100 188 264 317 444 320 445 1 0 9 -12 18 -27z m2410 -1617 c78 -18 119 -40 172 -92 77 -77 91 -148 47 -240 -56 -118 -170 -184 -316 -184 -144 0 -248 -113 -248 -270 0 -112 53 -196 160 -250 39 -20 58 -20 1209 -20 l1170 0 41 -21 c51 -27 108 -94 133 -157 24 -61 19 -129 -17 -204 -21 -45 -39 -65 -84 -95 l-57 -38 -1680 0 c-924 0 -1692 3 -1707 8 -35 9 -103 78 -130 131 -16 31 -21 60 -22 116 0 65 4 82 29 128 43 79 128 132 212 132 130 0 253 130 253 268 0 52 -18 120 -37 143 -7 8 -13 19 -13 23 0 13 -64 67 -102 87 -35 18 -62 19 -473 19 -239 0 -435 2 -435 5 0 2 20 39 45 81 25 41 45 77 45 79 0 2 27 49 60 105 33 56 60 103 60 106 0 3 35 64 77 132 l13 22 768 0 c606 -1 780 -4 827 -14z"/>
 <path d="M11650 13866 c-49 -16 -74 -31 -162 -98 -42 -32 -82 -58 -87 -58 -6 0 -11 -4 -11 -10 0 -5 -20 -21 -45 -36 -25 -14 -45 -30 -45 -35 0 -5 -5 -9 -10 -9 -6 0 -16 -5 -23 -10 -45 -38 -188 -140 -197 -140 -5 0 -10 -4 -10 -10 0 -5 -20 -21 -45 -36 -25 -14 -45 -30 -45 -35 0 -5 -5 -9 -10 -9 -6 0 -16 -5 -23 -10 -45 -38 -188 -140 -197 -140 -5 0 -10 -4 -10 -10 0 -5 -20 -21 -45 -36 -25 -14 -45 -30 -45 -35 0 -5 -5 -9 -10 -9 -6 0 -16 -5 -23 -10 -45 -38 -188 -140 -197 -140 -5 0 -10 -4 -10 -10 0 -5 -20 -21 -45 -36 -25 -14 -45 -30 -45 -35 0 -5 -5 -9 -10 -9 -6 0 -16 -5 -23 -10 -45 -38 -188 -140 -197 -140 -5 0 -10 -4 -10 -10 0 -5 -20 -21 -45 -36 -25 -14 -45 -30 -45 -35 0 -5 -5 -9 -10 -9 -6 0 -16 -5 -23 -10 -45 -38 -188 -140 -197 -140 -5 0 -10 -4 -10 -10 0 -5 -20 -21 -45 -36 -25 -14 -45 -30 -45 -35 0 -5 -5 -9 -10 -9 -6 0 -16 -5 -23 -10 -45 -38 -188 -140 -197 -140 -5 0 -10 -4 -10 -10 0 -5 -20 -21 -45 -36 -25 -14 -45 -30 -45 -35 0 -5 -5 -9 -10 -9 -6 0 -16 -5 -23 -10 -45 -38 -188 -140 -197 -140 -5 0 -10 -4 -10 -10 0 -5 -20 -21 -45 -36 -25 -14 -45 -30 -45 -35 0 -5 -5 -9 -10 -9 -6 0 -16 -5 -23 -10 -7 -6 -50 -39 -97 -73 l-84 -63 -747 373 -746 373 -82 0 c-102 0 -119 -8 -331 -163 -65 -48 -191 -138 -386 -277 -58 -41 -153 -109 -210 -150 -58 -41 -152 -109 -210 -150 -58 -41 -153 -109 -210 -150 -58 -41 -152 -109 -210 -150 -58 -41 -147 -105 -197 -141 l-92 -67 -35 31 c-54 47 -179 159 -209 188 -14 14 -64 59 -111 100 -91 79 -146 129 -188 170 -15 14 -65 59 -112 100 -91 79 -146 129 -188 170 -15 14 -65 59 -112 100 -91 79 -146 129 -188 170 -15 14 -65 59 -112 100 -94 82 -148 131 -189 170 -15 15 -50 46 -77 69 -27 24 -94 84 -149 135 -55 51 -122 112 -150 135 -27 24 -95 84 -150 135 -55 51 -122 111 -149 134 -27 23 -54 48 -61 54 -31 30 -195 179 -240 217 -27 24 -52 46 -55 49 -3 4 -23 20 -45 37 -47 36 -104 54 -169 54 -51 0 -146 -27 -146 -41 0 -5 -5 -9 -11 -9 -15 0 -68 -59 -90 -102 -28 -55 -27 -182 3 -243 12 -25 26 -45 30 -45 4 0 8 -7 8 -15 0 -8 4 -15 8 -15 4 0 26 -17 47 -38 22 -20 78 -70 124 -110 81 -72 136 -121 189 -172 15 -14 65 -58 111 -99 81 -71 135 -120 189 -171 15 -14 65 -58 111 -99 81 -71 135 -120 189 -171 15 -14 65 -58 111 -99 81 -71 135 -120 189 -171 15 -14 65 -58 111 -99 79 -69 129 -115 189 -171 15 -14 63 -57 106 -95 44 -39 94 -83 112 -100 40 -38 89 -82 188 -170 44 -38 94 -83 112 -100 41 -39 91 -85 189 -170 44 -38 88 -79 100 -91 18 -19 188 -171 244 -219 13 -11 38 -34 55 -51 64 -64 169 -95 257 -74 51 12 209 104 209 122 0 5 4 8 10 8 9 0 156 102 193 135 9 8 19 15 22 15 6 0 162 112 188 135 9 8 19 15 22 15 6 0 162 112 188 135 9 8 19 15 22 15 6 0 162 112 188 135 9 8 19 15 22 15 6 0 162 112 188 135 9 8 19 15 22 15 6 0 162 112 188 135 9 8 19 15 22 15 6 0 162 112 188 135 9 8 19 15 22 15 3 0 35 22 71 49 53 41 70 48 87 41 12 -4 351 -173 752 -373 436 -218 747 -368 772 -372 77 -12 151 18 287 117 66 49 129 96 139 104 9 7 19 14 22 14 3 0 13 7 22 14 10 8 74 56 143 106 69 50 133 98 143 106 9 7 19 14 22 14 3 0 13 7 22 14 10 8 74 56 143 106 69 50 133 98 143 106 9 7 19 14 22 14 3 0 13 7 22 14 10 8 74 56 143 106 69 50 133 98 143 106 9 7 19 14 22 14 3 0 13 7 22 15 31 25 276 205 338 247 33 23 112 80 175 128 63 47 138 101 165 120 28 19 111 79 187 135 75 55 213 156 308 225 207 150 440 321 496 364 49 37 75 74 97 140 21 63 21 95 0 165 -25 80 -108 162 -182 179 -63 14 -114 14 -161 -2z"/>
 <path d="M615 2650 c-89 -28 -154 -55 -224 -95 -104 -59 -253 -220 -307 -335 -109 -226 -114 -475 -15 -680 47 -97 98 -169 160 -224 13 -11 31 -28 40 -37 31 -29 99 -79 109 -79 6 0 12 -4 14 -9 4 -11 154 -81 174 -81 8 0 24 -5 35 -11 11 -5 63 -17 116 -25 79 -11 285 -14 1174 -14 l1078 0 -16 -42 c-25 -66 -25 -363 1 -438 37 -112 85 -209 131 -269 41 -53 185 -191 200 -191 8 0 15 -3 15 -8 0 -4 21 -18 48 -31 26 -12 54 -27 63 -31 8 -4 49 -17 91 -29 l75 -21 1769 3 c1467 2 1777 5 1814 16 93 29 201 81 258 126 34 26 153 145 172 171 45 63 94 162 122 252 19 57 22 91 22 232 0 140 -3 175 -21 231 -35 107 -131 289 -154 289 -5 0 -9 4 -9 10 0 12 -98 110 -110 110 -6 0 -10 4 -10 9 0 15 -135 92 -204 117 -119 42 -160 44 -923 44 -615 0 -733 2 -733 14 0 7 7 33 15 56 21 60 21 303 -1 379 -28 97 -74 196 -124 265 -39 54 -191 196 -210 196 -6 0 -10 4 -10 8 0 9 -112 68 -170 90 -19 7 -66 22 -105 32 -68 19 -124 20 -2180 19 -2029 -1 -2112 -1 -2170 -19z m4229 -540 c64 -22 133 -68 164 -109 28 -38 52 -98 52 -128 0 -46 -58 -150 -103 -185 -72 -57 -101 -68 -189 -75 -148 -11 -232 -59 -282 -163 -29 -62 -29 -168 0 -230 32 -65 85 -115 149 -139 55 -21 65 -21 1203 -21 783 0 1159 -4 1186 -11 48 -13 118 -82 145 -143 61 -133 -8 -299 -145 -349 -46 -16 -153 -17 -1704 -17 l-1655 0 -52 30 c-85 49 -133 133 -133 235 0 129 82 231 200 249 134 21 151 28 210 85 83 83 108 175 74 277 -30 88 -89 153 -164 180 -14 5 -688 11 -1530 14 l-1505 5 -55 29 c-88 47 -170 149 -170 213 0 50 37 120 95 178 104 104 -128 93 2151 94 1960 1 2002 1 2058 -19z"/>
 </g>

</svg>