<!DOCTYPE svg PUBLIC "-//W3C//DTD SVG 20010904//EN" "http://www.w3.org/TR/2001/REC-SVG-20010904/DTD/svg10.dtd">
<svg version="1.0" xmlns="http://www.w3.org/2000/svg" width="1600px" height="1600px" viewBox="0 0 16000 16000" preserveAspectRatio="xMidYMid meet">
<g id="layer101" fill="#000000" stroke="none">
 <path d="M6509 15995 c-3 -2 -29 -11 -59 -19 -30 -8 -71 -21 -90 -28 -43 -16 -154 -79 -158 -90 -2 -4 -8 -8 -14 -8 -14 0 -168 -155 -168 -169 0 -6 -4 -11 -9 -11 -11 0 -22 -19 -75 -128 -20 -40 -36 -78 -36 -85 0 -6 -8 -32 -16 -57 -13 -34 -18 -97 -22 -252 l-5 -208 -2556 0 c-2698 0 -2626 1 -2763 -44 -61 -19 -178 -77 -178 -88 0 -4 -4 -8 -10 -8 -11 0 -33 -17 -98 -75 -93 -83 -188 -235 -230 -367 -15 -49 -17 -462 -19 -5672 l-3 -5620 21 -75 c12 -41 25 -82 29 -90 4 -9 16 -34 26 -56 69 -145 223 -301 364 -366 19 -9 46 -21 60 -28 14 -6 56 -20 95 -31 69 -20 107 -20 2667 -20 l2597 0 3 -878 c3 -804 4 -881 20 -922 10 -25 18 -51 18 -57 0 -7 16 -45 36 -85 53 -109 64 -128 75 -128 5 0 9 -5 9 -11 0 -11 111 -125 160 -165 35 -28 138 -86 180 -102 19 -7 58 -20 85 -30 46 -15 374 -17 4469 -19 l4419 -3 76 21 c41 12 82 25 90 29 9 4 34 16 56 26 145 69 301 223 366 364 9 19 21 46 28 60 6 14 20 56 31 95 20 69 20 115 20 5642 0 5279 -1 5574 -17 5610 -10 21 -39 59 -65 84 -56 54 -122 79 -214 79 -123 0 -264 66 -354 168 -68 76 -79 94 -113 180 -30 79 -32 260 -2 342 31 89 95 177 176 245 75 62 226 115 332 115 100 0 186 55 235 149 l22 42 0 1042 c0 1009 -1 1044 -20 1112 -11 39 -25 81 -31 95 -7 14 -19 41 -28 60 -64 139 -222 297 -361 361 -19 9 -46 21 -60 28 -14 6 -56 20 -95 31 -69 20 -112 20 -4481 20 -2426 0 -4413 -2 -4415 -5z m1221 -795 l0 -260 -660 0 -660 0 0 154 c0 180 11 219 83 289 81 78 62 75 685 76 l552 1 0 -260z m5862 -712 l3 -973 22 -41 c28 -53 71 -96 123 -123 57 -30 192 -30 249 0 51 26 107 88 132 146 18 43 19 78 19 1004 l0 959 544 0 c532 0 545 0 600 -21 31 -12 56 -26 56 -30 0 -5 5 -9 10 -9 6 0 19 -9 30 -20 11 -11 20 -24 20 -30 0 -5 4 -10 9 -10 4 0 18 -25 30 -56 21 -55 21 -62 21 -883 l0 -827 -57 -18 c-80 -25 -195 -80 -275 -133 -89 -59 -268 -235 -268 -264 0 -5 -4 -9 -9 -9 -5 0 -13 -9 -16 -20 -3 -11 -12 -26 -18 -32 -22 -24 -74 -133 -101 -213 -72 -212 -78 -436 -19 -645 18 -66 72 -199 88 -220 7 -8 15 -22 19 -30 21 -45 96 -150 108 -150 4 0 8 -4 8 -10 0 -12 98 -110 110 -110 6 0 10 -4 10 -8 0 -18 97 -81 207 -135 43 -22 91 -45 106 -53 16 -8 38 -14 48 -14 11 0 29 -5 40 -10 19 -11 19 -82 19 -5369 l0 -5359 -21 -56 c-12 -31 -26 -56 -30 -56 -5 0 -9 -5 -9 -10 0 -13 -37 -50 -50 -50 -5 0 -10 -4 -10 -9 0 -4 -25 -18 -56 -30 -55 -21 -68 -21 -600 -21 l-544 0 0 5488 c0 5206 -1 5490 -17 5536 -24 66 -96 138 -158 160 -138 47 -288 -13 -350 -139 -20 -40 -20 -84 -23 -5543 l-2 -5502 -2660 0 -2660 0 0 570 c0 560 0 572 -21 612 -41 80 -105 130 -192 148 -127 26 -247 -32 -306 -148 -21 -40 -21 -52 -21 -612 l0 -570 -547 0 c-620 0 -609 -1 -690 77 -88 86 -83 24 -83 959 l0 824 1148 3 c1265 3 1170 -2 1318 67 38 18 97 53 131 77 68 49 193 177 193 199 0 8 3 14 8 14 8 0 71 124 91 180 42 117 41 -103 41 5725 0 5903 2 5613 -44 5740 -84 231 -264 407 -506 494 -72 26 -198 41 -357 41 l-163 0 0 260 0 260 2660 0 2659 0 3 -972z m-4947 -125 c50 -27 78 -53 113 -106 l27 -42 0 -5545 0 -5545 -28 -47 c-35 -59 -87 -100 -151 -121 -46 -16 -349 -17 -3942 -17 l-3892 0 -56 22 c-72 27 -127 82 -154 154 l-22 56 0 5492 c0 5095 1 5496 17 5542 29 88 98 154 181 173 21 5 1705 8 3952 8 l3915 -2 40 -22z"/>
 <path d="M10335 12796 c-130 -29 -204 -124 -205 -262 0 -89 23 -145 82 -200 137 -127 350 -90 436 75 31 58 31 184 1 243 -25 49 -73 100 -114 120 -27 14 -126 40 -143 37 -4 -1 -29 -6 -57 -13z"/>
 <path d="M12476 12798 c-165 -31 -256 -193 -201 -357 37 -111 139 -181 265 -181 169 0 294 156 259 323 -25 119 -98 191 -217 216 -29 6 -54 10 -55 10 -1 -1 -24 -5 -51 -11z"/>
 <path d="M13530 12796 c-87 -22 -147 -71 -182 -150 -27 -58 -25 -183 4 -237 51 -98 139 -152 248 -152 79 0 127 20 187 76 59 55 83 112 83 197 0 78 -22 137 -72 191 -41 45 -78 65 -146 79 -61 12 -62 12 -122 -4z"/>
 <path d="M11380 12791 c-52 -17 -140 -82 -140 -104 0 -4 -6 -14 -13 -22 -8 -7 -20 -41 -27 -74 -38 -178 86 -331 267 -331 230 0 357 267 211 444 -54 66 -100 88 -192 92 -45 2 -92 0 -106 -5z"/>
 <path d="M10303 11724 c-57 -21 -129 -86 -153 -141 -20 -45 -20 -61 -20 -2650 0 -2548 0 -2605 19 -2646 24 -53 76 -109 121 -133 27 -15 57 -19 130 -19 73 0 103 4 130 19 45 24 97 80 121 133 19 41 19 98 19 2646 0 2589 0 2605 -20 2650 -25 57 -96 120 -157 141 -57 20 -134 19 -190 0z"/>
 <path d="M11374 11726 c-91 -34 -151 -102 -173 -196 -18 -80 -12 -5178 7 -5231 16 -48 73 -112 124 -140 37 -20 57 -24 138 -24 86 0 99 3 136 27 23 15 55 44 72 64 67 81 62 -136 62 2709 0 2910 8 2638 -80 2725 -28 29 -64 53 -95 63 -54 19 -144 20 -191 3z"/>
 <path d="M12431 11723 c-63 -22 -133 -96 -157 -164 -18 -52 -19 -128 -19 -2639 l0 -2585 34 -62 c26 -48 47 -72 90 -100 55 -37 58 -38 151 -38 104 0 137 12 195 70 40 40 60 79 74 143 15 74 16 5098 0 5174 -34 165 -205 258 -368 201z"/>
 <path d="M10815 5850 c-51 -24 -95 -64 -125 -115 -21 -35 -24 -53 -24 -135 -1 -88 1 -98 28 -140 16 -25 134 -149 263 -276 l233 -232 0 -630 0 -631 -72 43 c-40 24 -126 75 -191 114 -65 40 -121 72 -123 72 -2 0 -23 12 -47 27 -59 38 -80 51 -97 59 -8 4 -33 19 -55 33 -60 38 -78 49 -95 57 -8 4 -33 19 -55 33 -62 40 -78 49 -100 60 -11 5 -36 20 -55 33 -38 26 -129 58 -164 58 -33 0 -156 -40 -156 -51 0 -5 -4 -9 -10 -9 -13 0 -50 -37 -50 -50 0 -5 -4 -10 -9 -10 -19 0 -51 -99 -51 -159 0 -59 33 -161 52 -161 4 0 8 -6 8 -13 0 -13 131 -105 190 -133 8 -4 33 -19 55 -33 60 -38 78 -49 95 -57 8 -4 33 -19 55 -33 60 -38 78 -49 95 -57 8 -4 33 -19 55 -33 60 -38 78 -49 95 -57 8 -4 33 -19 55 -33 60 -38 78 -49 95 -57 8 -4 33 -19 55 -33 60 -38 78 -49 95 -57 8 -4 33 -19 55 -33 60 -38 78 -49 95 -57 8 -4 33 -19 55 -33 64 -41 79 -50 103 -60 l22 -11 0 -467 c1 -331 4 -483 13 -518 21 -87 67 -142 153 -181 103 -47 220 -25 304 57 81 79 80 72 80 625 l0 482 40 21 c22 11 59 33 82 48 60 38 81 51 98 59 8 4 33 19 55 33 60 38 78 49 95 57 8 4 33 19 55 33 60 38 78 49 95 57 8 4 33 19 55 33 60 38 78 49 95 57 8 4 33 19 55 33 60 38 78 49 95 57 8 4 33 19 55 33 62 40 78 49 100 60 11 5 36 20 55 33 19 13 42 27 50 31 97 47 189 121 221 179 19 36 23 58 24 133 0 102 -14 134 -85 199 -56 50 -104 69 -180 69 -77 0 -134 -24 -276 -115 -23 -14 -56 -35 -75 -45 -19 -10 -52 -31 -75 -45 -23 -14 -56 -35 -75 -45 -19 -10 -52 -30 -74 -44 -22 -14 -56 -34 -75 -45 -19 -10 -39 -23 -45 -27 -23 -18 -128 -77 -136 -77 -5 0 -9 -4 -9 -10 0 -5 -4 -10 -9 -10 -9 0 -131 -69 -141 -80 -3 -3 -20 -13 -37 -23 l-33 -18 0 631 0 632 240 240 c132 131 240 243 240 247 0 5 6 14 13 20 21 16 40 113 35 169 -7 74 -65 182 -98 182 -5 0 -10 4 -10 10 0 21 -92 50 -160 50 -109 0 -134 -16 -345 -226 l-186 -187 -187 185 c-109 108 -205 195 -229 207 -56 28 -180 29 -238 1z"/>
 <path d="M2070 13330 c-159 -34 -249 -206 -193 -364 22 -59 93 -132 154 -157 42 -17 165 -18 2635 -18 l2592 -1 53 24 c62 28 89 51 127 109 25 39 27 50 27 142 0 92 -2 103 -27 142 -35 53 -62 79 -113 106 l-40 22 -2590 1 c-1424 1 -2606 -2 -2625 -6z"/>
 <path d="M4400 11994 c-149 -14 -251 -32 -410 -70 -119 -29 -320 -92 -335 -105 -5 -5 -15 -9 -22 -9 -22 0 -295 -129 -301 -142 -2 -5 -8 -8 -14 -8 -19 0 -291 -171 -318 -200 -3 -3 -30 -24 -60 -46 -86 -64 -126 -100 -265 -239 -157 -157 -161 -162 -322 -381 -38 -50 -163 -268 -207 -359 -53 -110 -55 -115 -86 -195 -12 -30 -26 -66 -32 -80 -63 -160 -125 -428 -152 -660 -47 -400 15 -911 152 -1260 55 -141 81 -201 135 -308 65 -128 70 -137 79 -140 4 -2 8 -9 8 -15 0 -7 20 -43 45 -80 25 -38 45 -71 45 -73 0 -2 6 -12 14 -21 8 -10 44 -57 80 -106 37 -48 76 -99 89 -114 48 -59 305 -313 316 -313 6 0 11 -4 11 -9 0 -4 27 -28 60 -52 33 -24 60 -47 60 -51 0 -5 6 -8 14 -8 8 0 16 -4 18 -8 3 -8 160 -118 210 -147 96 -57 305 -160 393 -194 11 -5 36 -15 55 -23 30 -12 100 -35 280 -91 19 -6 53 -14 75 -17 22 -4 60 -12 85 -18 134 -33 414 -63 575 -62 103 1 392 25 470 40 120 23 286 63 340 81 17 6 48 15 70 20 22 6 44 14 49 20 6 5 19 9 29 9 10 0 31 6 45 14 15 8 67 31 116 51 74 31 169 78 286 142 24 13 86 54 234 152 36 24 66 48 66 52 0 5 7 9 15 9 8 0 15 4 15 8 0 5 21 24 48 43 61 43 338 320 381 382 19 26 38 47 43 47 4 0 8 7 8 15 0 8 4 15 10 15 5 0 21 20 36 45 14 25 30 45 35 45 5 0 9 5 9 10 0 12 41 73 53 78 4 2 7 8 7 13 0 5 12 28 27 52 15 23 32 50 38 59 23 38 144 286 160 328 9 25 23 56 29 70 7 14 27 72 45 130 18 58 39 125 47 150 8 25 14 54 14 64 0 11 6 42 14 70 33 117 66 412 66 596 0 184 -33 479 -66 596 -8 28 -14 59 -14 70 0 10 -6 39 -14 64 -8 25 -29 92 -47 150 -18 58 -38 116 -45 130 -7 14 -29 65 -49 114 -31 74 -78 169 -142 286 -13 24 -68 108 -147 227 -21 32 -44 63 -50 68 -7 6 -34 39 -61 75 -60 78 -276 298 -361 366 -33 27 -78 63 -100 81 -147 118 -398 266 -589 347 -49 21 -104 45 -122 52 -17 8 -36 14 -42 14 -6 0 -19 4 -29 9 -41 23 -272 84 -437 115 -116 22 -393 46 -520 45 -60 -1 -171 -7 -245 -15z m600 -560 c335 -57 634 -170 882 -335 33 -21 64 -39 69 -39 5 0 9 -4 9 -9 0 -4 19 -21 42 -36 23 -15 54 -39 67 -52 14 -12 29 -23 33 -23 18 0 4 -20 -54 -81 -88 -90 -164 -145 -299 -213 -64 -32 -134 -73 -155 -90 -43 -34 -167 -156 -200 -197 -31 -38 -124 -197 -124 -212 0 -7 -4 -17 -9 -22 -14 -15 -69 -189 -80 -252 -6 -32 -15 -85 -21 -118 -15 -91 -12 -366 5 -470 40 -237 79 -369 164 -555 60 -132 61 -145 24 -220 -27 -55 -229 -270 -253 -270 -18 0 -190 -176 -190 -194 0 -9 -4 -16 -8 -16 -14 0 -78 -149 -98 -225 -17 -70 -17 -72 5 -160 13 -50 36 -125 52 -169 30 -82 115 -249 130 -254 5 -2 9 -8 9 -14 0 -11 80 -118 126 -168 18 -19 31 -37 28 -41 -2 -5 -26 -11 -52 -14 -26 -4 -83 -14 -127 -22 -100 -20 -522 -22 -600 -3 -27 7 -75 16 -105 20 -114 16 -159 33 -171 62 -6 16 -14 28 -18 28 -3 0 -15 20 -26 45 -11 25 -23 45 -26 45 -4 0 -12 12 -18 28 -6 15 -24 50 -40 77 -15 28 -43 75 -60 105 -34 59 -308 607 -328 656 -16 38 -71 179 -87 224 -25 66 -39 115 -51 172 -11 50 -10 59 4 72 26 23 190 103 258 125 91 30 202 77 213 90 3 3 22 15 42 26 36 20 122 89 163 130 43 45 95 107 95 115 0 5 3 10 8 12 12 5 47 61 64 103 9 22 22 78 28 124 26 190 -22 345 -183 589 -27 41 -57 83 -67 95 -133 160 -184 210 -347 340 -106 84 -180 163 -211 227 l-27 55 -3 295 -3 296 75 43 c121 69 343 171 372 171 7 0 28 6 46 14 60 25 156 49 343 87 151 31 510 32 685 3z m-2044 -1024 c29 -122 122 -323 157 -338 4 -2 7 -8 7 -13 0 -26 204 -229 230 -229 5 0 10 -3 12 -7 2 -5 22 -21 46 -37 23 -16 42 -33 42 -37 0 -5 4 -9 9 -9 13 0 141 -128 141 -141 0 -5 4 -9 8 -9 10 0 82 -96 82 -109 0 -5 4 -11 9 -13 14 -5 81 -140 81 -164 0 -15 -10 -30 -27 -41 -16 -10 -30 -20 -33 -23 -11 -13 -264 -130 -281 -130 -18 0 -242 -112 -259 -130 -3 -3 -25 -19 -50 -35 -72 -49 -178 -154 -200 -199 -29 -59 -50 -151 -50 -216 0 -61 31 -245 55 -327 9 -29 22 -76 30 -105 8 -28 19 -56 25 -62 5 -5 10 -18 10 -27 0 -9 9 -38 21 -65 24 -58 36 -86 48 -116 27 -67 105 -237 143 -312 l29 -59 -38 31 c-63 50 -222 211 -281 287 -31 38 -60 72 -64 73 -4 2 -8 10 -8 17 0 7 -4 15 -8 17 -8 3 -96 133 -121 178 -53 96 -106 203 -127 254 -14 34 -29 70 -33 81 -42 100 -75 215 -111 385 -20 95 -39 300 -39 420 0 244 48 529 124 740 51 139 161 369 208 434 9 14 89 133 102 154 6 8 18 23 27 33 9 10 25 30 35 46 l18 27 8 -79 c4 -44 15 -109 23 -145z m3584 43 c81 -122 115 -185 210 -388 51 -107 123 -368 155 -560 21 -123 21 -487 0 -610 -31 -185 -110 -473 -151 -554 -7 -14 -31 -64 -53 -111 -55 -116 -102 -197 -178 -308 -70 -102 -75 -108 -174 -221 -85 -97 -270 -271 -289 -271 -4 0 -10 -3 -12 -7 -3 -8 -145 -113 -153 -113 -2 0 -31 -18 -64 -40 -101 -67 -106 -68 -158 -13 -24 26 -61 69 -81 95 -20 27 -40 48 -44 48 -4 0 -8 6 -8 14 0 8 -4 16 -8 18 -12 4 -112 153 -112 166 0 6 -4 12 -8 14 -12 5 -52 77 -52 94 0 8 23 36 51 62 251 229 379 375 440 502 12 25 26 53 31 63 23 46 48 176 48 254 0 125 -26 218 -110 399 -22 46 -40 91 -40 100 0 8 -5 24 -11 35 -33 62 -71 285 -71 419 0 94 20 232 43 300 55 158 142 258 295 335 54 28 105 55 112 62 6 6 21 15 32 18 11 3 20 11 20 16 0 5 6 9 14 9 8 0 16 3 18 8 2 4 22 20 46 36 23 16 42 33 42 37 0 5 6 9 13 10 6 0 44 33 82 74 39 40 72 73 75 74 3 0 25 -29 50 -66z"/>
 <path d="M2009 5579 c-51 -28 -112 -96 -132 -149 -50 -134 16 -291 148 -349 l48 -21 2594 0 2594 0 52 24 c60 28 87 51 125 109 25 39 27 50 27 142 -1 87 -4 105 -24 138 -13 20 -27 37 -32 37 -5 0 -9 7 -9 15 0 8 -7 15 -15 15 -8 0 -15 4 -15 9 0 5 -19 19 -43 30 l-43 21 -2620 -1 c-2581 0 -2620 -1 -2655 -20z"/>
 <path d="M2031 4523 c-58 -21 -131 -96 -154 -159 -24 -67 -22 -143 5 -204 12 -27 25 -50 30 -50 4 0 8 -4 8 -10 0 -13 37 -50 49 -50 5 0 11 -4 13 -10 2 -5 29 -19 60 -30 57 -20 78 -20 2626 -20 2362 0 2572 1 2618 17 110 36 174 121 182 238 6 104 -9 149 -77 214 -42 41 -69 59 -104 69 -37 9 -594 12 -2630 11 -2303 0 -2587 -2 -2626 -16z"/>
 </g>

</svg>